<?xml version="1.0" encoding="UTF-8"?>
<svg id="Layer_1" xmlns="http://www.w3.org/2000/svg" version="1.1" viewBox="0 0 768 768">
  <!-- Generator: Adobe Illustrator 30.3.0, SVG Export Plug-In . SVG Version: 2.1.3 Build 182)  -->
  <path d="M536.2,264.6l14.1-11.9-2.2-3.2-14.6,11.5,2.7,3.6ZM560.9,303.7l15.8-6.7c.5-1.1-1.7-3.9-2.7-3.5l-15.2,6.7c-.6.7,1.1,3.9,2.1,3.5ZM569.5,329.5l2.9,1.1c1.6.6,2.8,5.3,1.7,6.7l-2.4,3.2c-.5.6.7,2.7,1.1,3.3l13.4-9.5c1.1-.8,2.7-2.6,2.5-3.7-.2-1.1-2.6-2.6-3.8-2.7l-16.5-2.1c0,1.4.1,3.5.9,3.8ZM541.6,268.5c-.8,4.2,3.1,9.5,6.8,10.2.6.1,2.9-1,2.6-1.4-2.3-3.3-6-4.3-5-8.6.4-1.8,3.4-4.2,5.3-4.4,6.5-.4,4.9,8.8,7.9,7.5.7-.3,1.6-2.1,1.5-3-.5-4.9-4.8-9.1-9.4-8.7-5.1.4-8.9,3.7-9.8,8.4ZM529.7,239.8l-2,8.2,8.4-.8-6.5,5.8c-.8.7-.9,3.1,0,3.7.7.4,2.5-.1,3.1-.7l11.3-10.3c1.1-1-2.4-3.9-3.8-3.6l-7.4,1.7,1.9-8c.2-1-1.7-3.6-2.6-4.1l-13.3,12.6,2.8,3,8.2-7.5ZM551.3,286.4l3.5-1.6c.7-.3,2.6-1.3,3-.7l1.6,2.1c.5.6,1.8,2.7,1.2,3l-2.8,1.9-3.3,2.3c-.6.4,2.1,2.9,2.9,2.5l12.6-6.5c1-.5,2.9-1.4,2.5-2l-1.4-2.5c-.6-1.1-6.4,3.5-7.3,1.8l-2.3-4.4c-.9-1.8,6.5-3.8,5.8-4.8l-1.9-2.9-15.9,8.1c0,.7,1.1,4.1,1.9,3.7ZM564.1,310.8c-1.1,3.8,1,10.3,5.8,11.2,1.6.3,5.3-1.2,7.1-2l-2.3-6.8c-1,0-2.8.5-2.7,1.2v2.9c.2.7-2.7,0-3.2-.6-1.2-1.7-.8-6.1,1.1-7.2,1.9-1.2,4.9-1.5,6.9-.7,3.5,1.4.7,7.6,4.9,9.1.7.3,1.4-1.9,1.5-2.8.3-5.7-3-10.1-7.9-11-4.7-.8-9.8,2.1-11.1,6.8ZM518.4,179.1l16.3-21.5-1.1,21.3,20.2-6.9-16.2,21.8,8.6,6.1,26.6-35.7-8.9-6.4-20.3,8,2.1-21.6-8.9-6.4-26.6,35.1,8.2,6.3ZM439.8,230.7c2.2,1.1,4.4,2.3,5.7,3.3.5.4-1.5,2.2-2.2,1.9l-2.3-1.2-2.8-1c-.6-.2-.6,1.9-.2,2.4l1.7,2.1c1.4.4,5,.9,6.5.3,1.3-.5,2.4-3.3,2.1-4.8-.2-1.4-1.5-2.4-4-5-1.2.4,1.2-.7,1.7-.9l3.1,1c.5.2,1.1-1.1,1.6-2.3l-8.4-3.1-2.8,7.2ZM369.1,221.7l-2.8-.7c-.5-.1.1-1.6.7-1.6h2.4c0-.1,3-.3,3-.3.5,0,.4-2.3,0-2.4l-2.8-.5c-1.3-.3-4.3.6-5.3,1.5-1,.9-1.5,4-.6,5.1.9,1,3.6,2.1,5,2.4l2.9.7c.5.1,0,1.7-.6,1.7h-2c0,0-5.1.2-5.1.2,1.1,2.7,3.4,3.4,6,3.2,3-.2,5.4-2.7,4.8-5.5-.4-2-3.3-3.3-5.5-3.8ZM495,207l4,2-8.2,12.6c1,1,3.6,2,4.1,1.2l7.4-10.9,4,2.4c.8.5,2.7-2.7,2-3.2l-11.2-7.4c-.9-.1-2.9,3-2.1,3.4ZM516.5,230.1c.9-1.1,1.2-3.9.5-5.2-.7-1.3-4.7-1.7-5.8-.7-1.8,1.6-1.7,5-.3,6.1,1.2,1,4.6.8,5.5-.3ZM375.1,215.6c.3,1.7.5,2.6,1.1,2.6l3.3.2,1,10.7c.2.5,2.9,0,2.9-.6l-.4-10.3,4-.7c.5,0-.3-2.3-.6-2.6l-11.4.7ZM423,218.5c-1.3-1.3-4.6-1.6-6.6-.7-1.6.8-3.5,3.8-3.9,5.9-.7,4,1.4,7.3,4.8,8.2,2.6.6,5.8-1.3,7.2-5.1.9-2.5,0-6.7-1.6-8.3ZM417.9,228.8c-1.3.1-2.4-3.6-2.1-5.1.3-1.3,2.2-3.7,3.6-3.4,3.6,1,3.2,8-1.5,8.4ZM430.8,220.7c-.8.2-2.1,1.1-2.6,1.6-.4.3.6,1.8,1.1,1.7l2.3-.5c.8-.2,2.6.4,2.9,1.1,1.3,3.1-6.5,3.1-9.9,8.1,2.9,1.4,7.6,2.7,9.9,2.8.5,0,1.4-2.6.8-2.8l-3.1-.7c-1.4-.4-1.7-1,.2-1.2,3.5-1.3,5.6-3.7,5.2-6.4-.4-3-3.8-4.6-6.8-3.8ZM518.5,477.4c2.4,1.3,8.4-3.9,6.6-6.4-.6-.8-3.4-1.8-4.2-1.3-1.3.8-3.2,2.2-3.9,3.1-.7.9.4,4,1.5,4.6ZM423.2,385.4c-3.1.8-4.2,4.2-3,6.7.8,1.8,4,3.1,5.8,2.5,2.4-.9,3.6-3.6,3.1-6.1-.4-1.8-3.7-3.6-5.9-3.1ZM439.4,313.4c-1.3,0-2.5,4-1.4,4.7.8.6,2.9,1.2,4.1,1.2,1.2,0,2-2.9,1.5-4.3-.3-1-2.1-1.7-4.2-1.6ZM472.8,385.4c-3,.6-4,4.3-3,6.7.7,1.6,3.5,3,6,2.3,1.7-.5,3.4-3.5,3.1-5.8-.3-2-3.2-3.9-6.1-3.3ZM425.8,308.5c-4.2.3-7.9,3.8-9,7.5-.3.9.6,3.2,1.5,3.4,3.6.4,3.4-2.1,8.3-4.5,1.5-.7,3.1-2.2,3.1-3.5,0-1.2-2.6-3-4-2.9ZM406.3,353c1.1-.5,1.7-3,1.4-4.1-.3-.9-2.9-2-3.7-1.5-1.5,1-2.4,3.6-1.5,4.4.7.7,3,1.5,3.9,1.1ZM494.3,353.2c1.1,0,2.2-2.6,2.1-3.7-.2-1.1-2.2-2.3-3.7-2.2-1.2.1-2.8,3.4-2,4.1.7.8,2.6,1.7,3.7,1.7ZM491.4,372c.8-.8,1.2-3,.7-4-.4-.9-3.4-1.7-4.2-1.1-1,.8-1.5,4-.6,4.8.8.8,3.3,1.2,4.1.3ZM406.8,371.7c1,.8,3.3,1.2,4.1.4,1-1.1,1.2-3.5.5-4.4-.6-.8-3.6-1.2-4.2-.5-.9,1.1-1.3,3.8-.4,4.5ZM543.7,466.7c4.7,1.7,11.4,1.9,16,0,2.1-2.7.3-7.4-1.7-9.9-2.1-2.6-5.2-4.5-8.5-3.8-3.7.8-11.9,11.4-5.8,13.6ZM502.5,417c-1.2-.1-3.2,2.6-2.8,3.7.4,1.4,2.9,3.1,4.9,3,1.8,0,3-3.9,1.9-4.9-.8-.8-2.8-1.7-4-1.9ZM573.7,350.6l10.7-.9-8.2,8c-1,.9-1.5,3.9-.4,4.8l17.9-2.4-.8-4-10.8,1.3,7.6-7c1.5-1.4,2.8-4.3,1.4-6.2l-17.9,2.6.7,3.6ZM313.6,544.4c-1.8.8-2.1,4.5-.9,5.1,1.5.7,3.1,1.1,4.2.8,1.5-.5,2.8-3.8,1.9-4.9-.8-1-3.5-1.7-5.3-1ZM479.8,159c8.5,4.7,18.3,4.7,26-1.3,6.7-5.2,10.6-14.5,8-24.2-2.1-8.1-8.9-13.4-15-15.5-8.2-2.8-16-1.3-22.3,3.7-6.2,5-8.9,12.6-8.3,20.1.6,7.2,4.9,13.6,11.5,17.3ZM480.1,134.2c2.9-6.3,9.7-9.5,15.6-7.4,6.9,2.4,10.2,9.7,7.5,16.9-2.8,7.5-10.4,10.6-16.7,8-6.9-2.9-9.5-10.7-6.4-17.5ZM538.5,438.9c1.6-2.8-.3-5.5-2.8-7.4-2.9-2.2-7.8,0-9.4,2.9-1.3,2.3,4.7,5.8,12.2,4.6ZM484.4,210.6c-4.8,3.7-5.4-4-8.9-3.9-.6,0-1.6,2.1-1.4,2.6.6,1.8,3.4,4.4,6,5.8,2.9,1.5,6.5-.3,7.5-2.2,3.4-6.9-7.6-9.1-3.4-13l5.6,4.1c.7.5,2.9-1.9,2.3-2.5l-2-2.3c-1.7-2-5.1-3.1-7.7-2.5-2.2.5-4.9,4.6-3.8,6.7l5.7,7.1ZM526.5,500.2c3.3,1,10.5.7,12-3.8.2-1.8-3.7-4.7-5.4-4.7-5.2.1-9.4,7.6-6.6,8.5ZM649.4,364.4c-1.3,0-3.4,2.3-3.3,3.8,2.1,37.6-3.4,73.9-17.2,108.9-.8,2,.8,4.9,2.4,5.1,1.7.2,3.6-.8,4.5-3.1,13.7-36,19.5-73,17.2-111.2-.1-1.8-2.4-3.6-3.7-3.5ZM254.5,633.6l6.5,3.4,4.8-4.7,11.2,4.8-.4,7.3,6.4,3,1.3-32.5c-1.6-1.4-4.2-2.7-6.3-3l-23.5,21.8ZM277.5,630.7l-7.1-3.2,7.5-7-.3,10.2ZM218.4,589.3l-3.9,5.2,11.5,8.9,3.7-5.1-11.3-9ZM258.6,618.3c3.7-6.8,2-15.8-4.8-20.3l-10.7-7.1-16.4,25.8,10.8,6.9c7.7,4.9,17.1,1.8,21.1-5.3ZM249.3,617.9c-4.2,2.7-9.3.8-13.3-2.8l9.3-15.2c2.4,1.1,6,3.6,7.4,6.2,2.6,4.9-.2,9.7-3.4,11.8ZM303.2,634.6l-2.8-13.3-7.5-2.5,5,21.1-3.7,11.3,6.5,2.2,3.5-11.1,16.6-14.5-7.5-2-10,8.8ZM406.1,635.2l-9.1,30.8c2.5.4,6.5.3,6.9-1.1l1.6-5.6,12.4-1.7,3.6,6.6,6.9-1.2-15.2-27.8c-1.6-.6-5-.5-7,0ZM407.6,652.7l2.6-10,5.1,9.1-7.6.9ZM345.6,639.3c3.9-.6,6.4.4,9.9,3.7l4.9-4c-6.6-7.9-17.8-8-24.4-1.3-6.3,6.4-5.9,17.8,1.7,23.4,6.1,4.6,14.1,4,20.6.4l1.9-13.4-12.6-1.9-.8,5.2c-.2,1,3.4,1.2,4.9,1.4,1.1.2,1.4,3.5.7,4.2-2.5,2.3-8.6,1.5-11.4-1.7-1.7-1.9-2.5-5.4-2.1-8.3.5-3.7,3.7-7.2,6.7-7.7ZM391.3,644c-.6-4.4-4.6-7.8-9.5-7.9l-14.7-.5-.8,30.3,6.8.3.3-9.8c1-.1,4.6,0,5.3.9l5.9,9.1h7.7c0,.1-6.9-11.1-6.9-11.1,5.3-2.5,6.6-6.8,6-11.3ZM382.5,649.9c-3.1.6-6.3.6-8.8.5v-8.4c-.1,0,7.2.3,7.2.3,1.1,0,3.2,1.5,3.8,2.5.6,1.2-.8,4.9-2.1,5.2ZM165.1,517.2l5.8-2.9-11.4-21.5-5.5,2.9,4.1,7.9-21.3,11.6,3.5,6,20.9-11.5,3.8,7.5ZM146.8,335.6l-44-7.9-1.4,10.3,43.9,7.6,1.5-10.1ZM151.8,314.5l-13.2-4.5c.3-1.6,1.3-4.8,2.2-6.1l15.7-4.1,3.2-11.3-18.2,5.2c-.6-6.5-5.2-11.4-11.8-12.9-7.9-1.8-14.7,2.4-17.1,10.2l-6.2,19.7,42.3,13.8,3-9.9ZM132.5,298.3l-2.5,9-11.8-3.5,3.5-10.3c.7-2.1,5.1-3.1,7.1-2.2,2.4,1,4.4,4.4,3.6,7.1ZM139.5,481.5c.9-.8,1.2-2.9.3-5.2-13.7-34.6-18.7-70.5-17.1-107.3,0-2.3-1.7-4.5-3.3-4.4-2.1.1-3.6,2-3.7,4.4-1.7,38.5,3.8,76.1,18.3,111.8.7,1.7,4.4,1.9,5.6.8ZM214,566.8c-4.3-6.1-11.5-8.8-18.7-6.2-5.7,2.1-10.4,7.6-10.4,14.7,0,6.1,3.9,12.5,10.9,15.1,7.2,2.6,14.1-.3,18.1-5.8,3.6-5.1,4-12.2,0-17.8ZM206.8,581.9c-3.7,3.4-8.7,3.6-12.1.5-3.8-3.5-3.9-8.9-.4-12.9,3.5-3.9,9.1-4.2,12.6-1.2,4.2,3.7,3.9,9.8-.2,13.5ZM194,546.6l-18,6.8,10.5-16.1c0-1.3-2.1-3.9-3.4-4.7l-18.7,6.6,11.9-16.4-4.5-5.5-18.1,26,3.8,5.2,18-6.5-10.7,16.6,3.9,4.7,29.6-11.2-4.4-5.5ZM442.4,650.4l-11.9-18.4-7.1,1.7,18,27,6.3-1.7,4.7-31.9-7,1.4-2.9,21.9ZM686.3,268.6c-36.4-98.3-118.5-173.1-220-199.3-61.9-16-127.6-13.7-187.4,7C145.2,122.8,57.6,250.9,62.9,392.4c2.1,56,18.3,111,48.4,159,41.6,66.3,105.4,115.8,180.5,138.6,61,18.4,126.4,18.6,187.8-.7,83.7-26.4,153.1-85.1,192.4-163.1,40.2-79.8,45.3-174,14.3-257.5ZM601.1,608.4c-114.4,109.1-289.8,117.1-412.8,17.8-37.8-30.5-68.5-69.5-88.9-113.8-37.2-81-38.6-174.5-3.3-256.1,39.7-91.8,120.4-160,218.1-181.8,58.6-13.1,120-9.4,175.8,10.4,142.3,50.6,227.8,195.3,204.6,344.5-10.6,68.1-43,130.8-93.5,179ZM590.4,253.9l37.2-24.7-6-8.5-37,24.6,5.8,8.7ZM602.1,265c-1.9,5.7-.9,11.1,1.7,15.9,4.8,9.2,14.9,12.6,24.3,8.3l24.1-11.2-4-9.1-25.1,11.2c-5,2.2-10.1-.8-11.4-5.3-1.3-4.4.6-8.9,5.2-11l23.7-11-3.9-9.6-23.4,10.9c-5,2.3-9.6,6.6-11,10.8ZM617.4,314.9l25.5-4.9-14.7,14.9,21,8-27,5.7,2.5,9.7,43.5-9.1-2.6-10.7-20.9-7.3,16.3-14.8-2.2-10.1-43.6,9,2.2,9.6ZM629.3,500.9c-2.9-1.5-7-1-9.9,1.7l-6.1,5.7c-.5.5-2.8.6-3.5.2-2.4-1.6,0-6.5,6-10l-2.7-5.4c-5.3,3-8.4,6.1-9.9,11.3-1.1,3.7.5,7.6,3.1,9.7,2.3,1.8,7.1,3.2,9.5,1l7.5-6.9c.8-.7,2.8-1.3,3.6-.9.7.4,1.5,3,1.2,3.8-1,3-4.4,5.8-8.2,7.1l1.9,6.3c7.4-3,11-7.3,12.3-13.7.9-4.2-1.3-8.2-4.8-10ZM161.3,274.9c11-4.2,16.9-16.1,14.6-27.1-2.6-12.2-14.7-20-26.8-17.4-13.9,2.9-22.2,18.1-17.1,31.4,4.3,11.3,17.6,17.6,29.3,13.1ZM142.3,245.9c4.1-6.1,12.2-7.4,18.8-2.7,5.9,4.1,7.1,11.7,3.6,17.1-3.9,5.9-11.5,7.3-17.6,3.5-6.6-4.1-8.8-11.8-4.7-17.8ZM592.9,184.4l-6.6-7.1-33.4,29.3,6.9,7.4,20.2-17.4-7.2,32.5c1.8,2.6,4.2,5.2,6.5,6.7l33.1-29.3-6.9-7.7-19.5,17,6.8-31.4ZM469.8,646.3l-1.9-5.9,12.6-4.2-2.4-5.6-12.4,4.4-1.6-5.8,14.3-4.9-2.4-5.7-20.5,7.4,9.9,28.5,21.3-7.6-2.4-5.4-14.5,4.9ZM300.2,84.3c-115.7,32.3-201.6,130.4-220.2,248.8-17.1,109.2,25.3,218.5,110.9,287.9,69.3,56.2,160.4,80.7,249.3,63.9,111.2-21,202.5-101.3,237.3-208.6,23.6-72.8,19.3-152.9-12.4-222.7-63.1-139.3-217.6-210.5-364.9-169.4ZM685.7,391.4c-2.8,81.9-38.7,159.3-100.1,214.4-109.4,98.1-269.5,103.7-385,14.3-116.1-89.9-151.4-250.6-82.3-380.5C182.4,118.9,317.7,56.8,451.3,86.9c141,31.7,239.2,160.2,234.4,304.5ZM538.7,601.2c-7.7-.2-13,4.7-15.5.9-.6-.9.9-3.7,1.9-4l8.3-2.3-.5-5.7c-6.1,0-10.9,2-14.4,6.4-2.8,3.5-2.1,8.4.6,11.5,6.1,7.2,15.4-3.5,20,1.6-1.2,5-6.4,6.2-11.4,5.7l-1.1,6.5c10.5,1.1,20.3-5.5,18.6-13.8-.5-2.8-3.2-6.8-6.6-6.9ZM556.5,598.3l-3.9-5,10.4-8.6-4-4.3-10.4,8.5-3.7-4.7,11.9-10-3.8-4.6-17.2,14.4,19.3,23.3,17.4-14.4-3.9-4.8-12,10ZM497.4,635l-9.9-21.6-6.3,3.2,12.8,27.2,18.9-9.2-2.5-5.6-13.1,6ZM577.2,544l22.9,19.3,4.5-5.5-23.3-19.1-4.1,5.3ZM608.9,541.6l-5.1-4,7.9-10.9-5-3.4-7.3,10.5c-1.3,1-5.3-2.1-4.7-3.6l7.8-11.7-5.3-3-11.8,17.8,24.7,17.5,12.8-18.6-5-3.8-9,13.2ZM578.7,553.5c-3.1-2.1-8.4-1.6-11.6,1.7l-10.3,10.9,21.2,21.1,4.9-4.8-6.9-7.6c4.1-6,13.3,1.7,16-1.6l3.9-4.9-12.1-2.1c1.3-5.9-.8-9.8-5.1-12.7ZM577.2,565.3l-5.2,6-6.3-6,6-5.6c.8-.7,3.7-.3,4.6.3,1.1.7,1.7,4.2.9,5.3ZM302.6,152.8l-4.1-12.6,10-3.6c8.4-3,11.8-11.5,8.9-19.7-2.4-6.7-9.9-11.9-18-9.3l-20.5,6.4,13.7,41.9,10.1-3.2ZM300,116.8c2.9-1,6.6,1.2,7.5,3.8,1,3.1-.3,7.1-3.7,8.3l-8.2,3-4.1-12.3,8.5-2.7ZM180.5,345.1c-.9-.1-2.8.1-3.1.8-.3.7-.6,2.7.1,2.9l3.1.6c.8.2,3.1.4,3.1,1.2v3.3c-.2.8-.7,2.9-1.5,2.8l-3.2-.2c-.9,0-3.2-.8-3.2,0l-.3,2.9c0,.6,2,1.2,2.6,1.3l15.6,2c.2-1.8.5-3.7-.1-3.9l-2.9-.7-3.6-.9c-.4,0,0-6.6,1.4-6.5l3.5.4c.8,0,3.4-.2,3.4-1.1v-2.7c0,0-14.9-2.3-14.9-2.3ZM352.4,234l10.7-2.9c-1.3-3.9-4.2-.6-8.3-1.4-.5-.1-1.1-1.7-.6-1.9l3.1-1.2,3.1-1.2c.5-.2-.7-2.1-1.2-2.1l-2.4.4-3,.5c-.6.1-1.1-2.5-.5-2.6l2.7-.5,3.1-.6c.6-.1.5-1.6.4-3l-10.2,2.2,3.2,14.2ZM178.6,339l18,4,1.1-4-18.4-4.1-.6,4.2ZM347.2,192l-1.3-10.2,9,8.5c.6.6,3.8.2,4.1,0l-3-17.6h-3.9c0,0,1.4,10.6,1.4,10.6l-9.8-9.1c-.7,0-3.3,1.3-3.3,2l3.1,16.8,3.7-1ZM219.8,256.3c.4-.6-1.4-1.6-2.7-2.3l-8.4,11.6c.5,1.2,3,2.5,3.6,1.7l2.4-3.4,9.6,7c.7.5,2.4,1.6,2.8,1.1l1.8-2.7-11.7-9,2.6-4ZM195.6,290.2l8.4,7.3-10.9-.9c-.6,0-2.4,1.4-2.2,1.9.2.5.8,1.9,1.3,2.3l7.4,6.7-11.8-1.4-1.2,4.1,17,1.8c1,.1,3.1-.9,3.2-1.7,0-.8-.7-2.5-1.3-3l-7.1-6.2,11.3.5,1.9-3.3-14.3-12.1c-.9-.2-2.7,3.1-1.7,3.9ZM182.5,321.4c-.3.6.4,2.7,1.1,3.2l13.9,11.2c.8-.9,1.9-3.2,1.2-3.9l-2.6-2.8c0-1.6.6-5.9,2.1-6.4l3.7-1.2c.8-.2,1-2.4.9-3.9l-17.3,1.9c-1,.1-2.7,1.2-3.1,1.9ZM201.7,276.6c0,.8.6,2.5,1.2,3.2l10.8,13.7,2-3.7-2-3.5,2.9-5.9h4.3c.9,0,1.9-2.5,1.9-3.6l-17.9-2.4c-.9-.1-3.3,1.4-3.2,2.3ZM434.7,194.3c4.9-1.9,7.4-7.5,5.6-12.4-1.6-4.4-7.2-7.4-12.4-5.3-5.5,2.2-7.1,8.7-5.2,13,2.1,4.6,7.6,6.4,12,4.7ZM426.4,184.1c1-3.3,3.4-5.2,7.4-3.8,1.8.6,3,4,2.7,5.9-.4,2.7-2.5,5.5-6.1,4.8-3.8-.8-4.7-4.7-4-6.8ZM408.8,190.3l.6-2.8c.2-.9.2-3.7,1-3.6l4.5.2c1.1,0,2.9-.2,3.7-.5.6-.2-.2-2.6-.9-2.7l-7.1-1.4c.3-2.2.7-3.6,1.5-3.5l3.2.4,3.9.5c.8.1,1.2-1.6,1.4-3.3l-13-2.1-2.7,18.2c1.9.4,3.6,1.1,3.8.4ZM448.1,193.8c4.2,2.9,1.1,8.7,7.9,8.7l-1.9-7.1c2.8-1.1,5-2.8,5.7-5.1.7-2.4-1-6-3.2-6.8l-9.1-3.4-6.2,16.9,3,1.8c1.2.7,2.4-5.9,3.8-4.9ZM450.7,185.2c1.1.1,3.8,1.6,4.8,2.7.7.8-1.4,3.9-2.4,3.7-1.2-.3-3.1-1-4.1-1.5-1.1-.6.4-5,1.7-4.9ZM407.9,230.5c.6.1,2.8-2.2,2.3-2.3l-2.3-.5-2.9-.4c-.3,0,.2-1.2.5-1.3l1.8-.9c2-1,3.8-4.6,3.1-6.4-1-2.6-4.7-3.9-7.5-2.8-.7.3-2.5,1.9-2,2.4l1.5,1.5c1.2-.8,2.9-2,3.5-1.4l1.9,2.2-9.2,7.9,9.4,2ZM394.4,185.2l-7.5-.2.2-14.5h-4s-.5,18.2-.5,18.2h12.1c.9.1.6-3.4-.3-3.5ZM365.6,189.4l1.4-3.8,7.6-.2c1,2.4,1.3,3.5,1.9,3.4l3.8-.4-8.6-17.6-4.3.7-6,18.2c1.4.3,3.9.6,4.2-.2ZM286.1,211.8l5.5-3.6,3.7,2.4c.6.4,2.4-1.2,3.3-2l-13-10.7c-.9-.7-2.9-1.2-3.9-1-.7.2-1.9,2.1-1.8,2.9l2.2,18.2c3.6-.8,3.6-3,3.9-6.4ZM344.3,141.8l-8.2-43.4-10.2,1.9,8,43.5,10.4-2.1ZM364.8,139.1l-.9-26.3,20.9,25.4,9.2-.4-1.9-44-10.1.4,1,26.2-20.4-24.9c-2.9-.3-6.7-.2-9.8.2l1.5,43.5,10.3-.2ZM438.7,134.8l-23.2-3.6,1.5-8.8,19.7,3.3,1.3-9-19.7-3,1.2-8.4,22.5,3.6,1.1-9-32.3-4.8-6.8,43.4,33.3,5.4,1.5-9.2ZM331.2,196.8c5.5-1.6,7.9-6.9,6.5-12.1-1.3-4.7-6.1-7.8-11.4-6.3-5.6,1.6-8.1,7-6.8,11.5,1.7,5.8,6.8,8.4,11.7,6.9ZM328.1,181.8c1.7-.2,4.6,1.7,5.3,3.2.8,1.8.2,6.2-1.3,7.1-4.4,2.6-7.5.2-8.6-3.3-.8-2.4.3-6.5,4.6-7ZM254.1,192.4c-38.6,27.1-68.7,65.3-84.8,109.9-19.9,55.2-18.7,116.4,3.6,170.5,43.5,105.8,157.3,165.8,269.5,136.1,60.8-16.1,111.3-56.6,141.6-110.8,23.9-42.8,33.3-91.8,28.3-140.3-9.1-87.5-67.4-162.5-149.9-192.6-69.6-25.4-147.5-15.5-208.3,27.2ZM229.1,544.8c38.5-4.4,75-9.8,112.3-19.6-3.4-1.3-5.8-1.9-7-4.8-3-4.8-5.6-10.8-11-13-5.1-2.1-11.8,0-17.1.4l-9-9.4-19.4-1.1c-2-.1-5.5,2-6.9,3.7l-15.2,18.2c-2.9-.6-8.2-1.8-10.2-.6-7.4,4.1-11.2,11.2-14.6,18.9l-8.1,1.3c-12.9-14.5-24.2-29.1-33.5-47.4l26.6-3.9,27.9,14.7c1.2.6,4.3-.7,4.6-1.8.3-1.1-.6-3.6-1.7-4.2l-24.7-13.3,17.4-19.3,24.3-1.6-10.7,14.1c-.8,1-.3,4.3.6,4.7,1,.4,3,.1,4.3-.4l36.8-46.2c2.1-2,5-3.7,7.9-4.1l51.4-7.7c5.9-.9,21.8-12.3,27.4-11.7l39.4,4.2c24.4,2.6,103.7,20.4,84.9,42.5-11.6,13.6-33.4,23.3-50.8,30.2-1.1.5-2.5,2.8-2.4,4,.1,1.4,3.1,3.1,4.7,2.5,18.2-7.5,41.4-17.7,53.3-31.8,6.9-8.2,5.8-19-2.5-25.8-21.6-17.5-59.1-23.7-86.8-28.7l15.4-.7,38,1c25.8.7,62.5,7.8,82.1,23.8,21.3,17.3,13.1,44.7-3.8,64.6-9.7,11.3-20.4,21.4-32.4,30.5l-14.5,8.6c-2.9,1.7-5.9,4.7-7,8l-7.6,22.1-10.7-.4c7.5-13.7,4.7-30.7-6.5-41.3-11.3-10.7-28.8-12.1-42.2-2.9l-11.4-15.9c4.4-2.8,7.7-3.2,12.3-.8l-3.8,5.3-1.6,2.8c-.4.8,2.2,2.5,3.1,2.2,4.1-1.5,8.6-7.8,8.7-12.2l8.2,2-5.7-13.8c-.4-.9-1.4-2.7-2.1-3.4-1.9-2.1-3.9,6-8.3,5-7.3-1.5-16-2.7-21.6-7.6-4.7-4.1-5.6-11.8-6.9-18.1l9.3,1.8,6.6-8.2.3-5.2c0-1,2.9-1.1,4.6-1.4.6-9.6-7-18.7-17.1-18.1l-11.5.7-2.3,10c1.7,2.7,2.6,4.8,2.7,8-12.6.9-22.8,5.4-32.1,13.8l-15.7,18.1-.9,7.3c-.7,5.4-.8,10.3,1.6,15l-2.9,2.2c-.6.5.2,3.4.9,3.6l8.5,2.3c2.4.7,5.6,1.9,6.9,3.9l8.8,14.3-4.4,10c-10.9-3.4-21.8-2.1-31,5-17.3,13.3-18,38-2.7,53.5-40.3-9.3-74.9-29.9-103.7-58.4ZM261.3,534l-21.6,2.5c1.1-4.2,3.1-7.4,6.5-10.4,2.2-1.9,7.9-.7,9.7,1.4l5.4,6.5ZM261.2,523.1l16-19.1,16.8.6,9,9.4-4,13.9-28.4,4.9-9.3-9.7ZM306.4,526.3l2.8-12c3.9-.8,7.8-1.8,11.2-.7,3.1,1.1,5.3,5,6.9,8.1l-20.9,4.5ZM286.6,381.7c-.7-.6-2.6-.8-3.5-.5-10.3,3.5-20.4,5.4-31.8,4.6,9.8-7.9,18.5-15.5,26.4-25v-4c.1-.8-2.1-1.3-2.9-1.3h-9.3c8.1-7.3,24.3-21.5,20.5-25.2-3.2-3.1-10.3,2.8-19.7,1.7,10.8-9.6,19.5-19.3,26.2-30.9.1,3.4,1.9,7.7,4,7.1,11.7-3.6,20.5-17.2,14.8-18.3-1.2-.2-3.5.9-4.4,1.9l-6.7,7c-.7-4.4-1.2-7.2-3.5-8.7-5.6,2.6-10.9,5.4-17.1,6.7,10.5-9.9,30.8-35.2,18.4-32.9l-8.6,1.6c10.2-11.2,17-22.2,23.1-35.9,6.6,13.4,13.5,25.8,24.1,36.2l-8.8-1.8c-12.4-2.5,6.9,23.1,18.1,32.7l-9.5-2.4c-.6-.2-2.5-.5-2.7.1l-1.6,3.7c6.6,14,16.1,24.9,28.1,34.2-14.8,1.1-26.4-12.5-26.8-3.5l-.3,7.4c-7.9-4.2-10.5-11.5-14.5-11-7,1,6,18,21,19.7l1.4-8.5,19,19.1h-9.3c-12-.2,12.7,22,23.5,30-15,2.7-31.6-5.6-34.6-4.4-.8.3-1.4,2.8-1.1,3.8l2.6,8.5c-10.7-2.1-19.2-7.3-28.4-12.2-8.9,4.6-17.7,10.3-28.6,11.8l3-8c.2-.6-.2-3-.7-3.4ZM320.4,420.4l-15.6,2.3,2.5-29.4c.2-1.6,3.6-3.9,5.2-4.1,1.7-.2,5.4,2.3,5.5,4.2l2.4,27ZM448.5,310.4c.8,5.5,10.4-2.4,20.5,2.2l4,5.3c.7.9,3.9,1.3,4.9.6,3.5-2.7-4.3-7.4-2.6-11.6l13.5,2.5c2.6,12.8,10,7.1,11.4,14h-100.6s4.6-8,4.6-8c3-.7,6.3-1.3,7.8-3l10.6-11.7,12,3.5,13.9-9.6,10.1,5.4c-1.4,7.5-10.9,4.9-10.1,10.5ZM483.3,279.8c.9.1,1.5,2.6.9,3.5l-15,21.6c-.8,1.1-4.6.4-5.1-.4l16.6-22.8c.5-.7,1.9-1.9,2.6-1.9ZM471.8,261c7.1,1.5,13.8,4.6,20.5,8.3,4.7,5,9,9.7,12.5,16.4-5.2-4.1-9.3-7.9-15.7-10.2-2.6-.9-3.9-3.2-5.6-5.5-2.7-3.5-7.5-5.7-11.7-8.9ZM509.7,329.9c.6,1.6.6,3.4,0,5.7h-120.7c-.4-1.5-.5-3.1-.6-5.7h121.2ZM502.9,342.1l-9.2,40.8c-.2,1.1-2.6,2.9-3.6,3-2.4-7.9-8.4-12.4-15.8-12.4-7.2,0-13.9,4.1-16.2,12.7h-17.5c-2.1-7.7-8-12.5-15.2-12.6-7.9-.2-14.3,3.9-17.1,12.3l-3.2-2.2-9.2-41.5h107.1ZM476.2,399.8c-4.8,1-10.3-1.4-11.7-6.9-1.2-4.7,1-11,7.2-12.4,6-1.3,11,2.3,12,7.1,1.2,5.7-1.7,11-7.5,12.2ZM459.9,400.1h-22c0,0,3.2-7.3,3.2-7.3h16.3c0-.1,2.4,7.3,2.4,7.3ZM427,399.5c-5.2,1.4-10.5-1.4-12-6.4-1.5-5.1.8-11,6.8-12.6,6-1.6,11,2.3,12.1,7,1.3,5.6-1.8,10.6-6.9,12ZM453.3,545.5l-14.9-17.7c8.6-4.8,18.4-5.1,26.5,0,9.1,5.8,13.1,16.9,10.6,27.1-2.4,9.8-10.8,17.8-21.7,18.8-10.2.9-19.2-4.6-23.7-12.8-4.9-9.1-4.4-20,3.1-28.5l14,16.5c1.3,1.5,2.2,2.9,3.1,3.4,1.1.5,4.1-.9,4.5-2.1.4-1.2-.6-3.6-1.6-4.7ZM371.7,547.3l2.7-6.1c5.6,8.3,11.7,15.7,13.8,25.8-4.4-8.1-8-15.5-16.5-19.7ZM379.4,570.7l-19.1,2.6,7.7-17.9c5.8,3.7,9.1,7.9,11.5,15.2ZM377,494.5c.1-.5,1-2.2,1.4-2.5l15.1-10.6,8.2,12.6c2.6,4,9.4,4.2,14.1,5.9l-2.2,2.4c-.6.6-.4,2.7,0,3.5l2.2,4.7-12.6,5.9c0-3.5,1.4-9.2-1.7-11.3-10.2-7-25.1-8.7-24.6-10.7ZM397.9,526.2l20.1-8.9-19.8,42.2c-2.1-7.3-2.1-13.5-2.8-20.5-.5-4.6,0-9.2,2.5-12.9ZM331.1,580.7c-1.2-8.6,1.8-16.6,7.8-22.2,6-5.6,14.4-8,23.4-5.6l-9.2,19.3c-1.2,2.6-3.6,5-1.9,7.6,2.1,3.3,5.1,1.9,8.7.6,6.1-2.2,12.9-2.5,19.8-3.2.8,13.5-9.8,24.1-23,25.1-12.6.9-23.7-8.4-25.6-21.6ZM369.1,609c11.2-6.9,19.5-16.1,19.4-29.4,3.7,1.3,6.4,1.7,9.7,1,7.6-1.6,7.9,3.1,15.7-2.5,1.7-1.2,4.7-3.6,3.4-5.8-1.8-3.2-10.1,0-12.6-3.9-1.1-1.7-1-4.6-.1-6.4l18.6-39.9,3.9,3.3c-6.7,7.2-9.6,15.7-9.2,25.5.7,17.3,13.7,29.8,31.4,32l-19.3,3.2-21.5,22c-12.7,2-25.7,2-39.5.9ZM419.4,606.7l13.6-14.4,21.3-3c11.7-1.7,21.5-26.9,46.6-13-25.2,15.6-52.4,26.3-81.5,30.5ZM507.6,571.8l-9.5-4.6,7.9-23.2c4-2.7,10-7.6,14.8-8.6,10.1-2.1,19.6-2.1,30.3-2.5-13.2,15.2-27.4,27.5-43.6,38.8ZM600.7,436.2l-13.1-2.1c-1.7-.3-4.8-4-4.3-5.7l7.2-11.4,14.7-6.5-4.5,25.7ZM605.6,402.5l-18.1,8.5c-5.5,2.6-9,11.2-11.4,17.3-.6,4.3,4.9,11.3,8.9,12l14,2.5c-8.1,30.5-22.4,59.3-42.5,83.6l-24.2.6,20.8-20.2c9.7-9.4,16.2-20.6,20.7-32.8,6.8-18.9,1-38.1-15.3-49.8-8.3-6-17.6-9.6-27.9-13.7,4.4-3,9.7-8.8,15.2-9.3l22.7-2-5.9,8.6c-.8,1.1-.8,4.1.3,4.9,5.5,4.3,12-14.9,25.6-25.1,4.8-3.6,11.5-3.9,18.2-5.9l-.9,20.8ZM537,219.6c42.2,40.4,67.6,95.5,69.4,155.2l-17.2,4.7c-8.8,2.4-11.8,11.2-16.4,12.1-10,1.9-19.9.5-29.3,3.2-8,2.3-14,9.1-21.8,12.5l-35.6-5.4,4.8-8c4.4-2.4,8.2-5.1,9.4-10.4l9.3-41.1c2.5.3,6.7-1,6.8-2.6l.2-12.6c0-5.2-9.2-1.9-10.8-6.9-1.5-4.7-5-6.3-8.9-8.4-1.6-1.9-3.5-8-6-8.6l-11.2-2.3,12.3-17.4c11,6.2,19.3,24,22.4,23.7,1,0,2.3-1.4,3.4-2.6-1.3-13.3-7.2-24.7-16.1-34.6,2-4.4-.4-7-3.7-9.3-3.4-2.4-6.6-3.9-10.3-.6-11.3-5.9-23.2-7.9-35.7-6.1l-2.3,2.6c-.6.7,1,3.2,2,3.5,9.5,2.9,19.1,6.8,27.1,13.4l-15.6,21.6-13.4-7.3c-6.5,1.7-12,4.8-17.1,9.5l-11.2-4.1-14.4,14.8c-1.8.5-6.4,1.1-7.5,2.7l-8.3,12.5c-2.4,0-7.9.2-8.4,2.3-1.1,4.3-.9,9.9-.3,13.6.3,1.7,4.2,2.9,6.4,3.1l9,39.5c1.2,5.5,4.1,9.7,9.8,11.2l3.2,7.6c-11.9,1.1-23.2,1.2-34.5,4l-23.8,10.8-25.5,4.2-2.4-24c11.5,4.2,29.1,8,26.2,1.4l-3.1-7c12.9,3,24.4,3.7,36.9.7.8-.4,2.8-1.6,2.5-2.4l-1.1-3.5c-10.2-6.2-19-13.2-27.5-22.2l11.9-1.8c.8-.1,2.6-1.8,2.7-2.6.2-1-1-3.2-1.9-3.7-7.2-4.4-13.4-9.2-19.1-15.5,7.2-.3,12.9.4,19.1-1.8,2.1-.8,0-5.1-1.5-6.2-10.7-7.4-20.1-16.2-27-27.6l13.8.6c1.1,0,3.4-1.8,3.5-2.8.2-1.2-1.1-3.5-2.2-4.3-9.4-6.6-17.4-14-23.5-23.7l11.1-.3c1,0,3.1-1.8,3.3-2.8.6-4.1-14.8-13.5-21.8-27.5l-11.5-23.3c-.4-.7-1.7-2.1-2.4-2.2-.9-.2-2.7,1.1-3.1,2l-8.1,17c-9.6,20-24.3,29.2-25.2,33.4-.2.9,1.7,3.2,2.7,3.3l12.2.3c-6.4,9.3-14.8,17.6-24.5,24.3-.9.6-1.9,3-1.7,3.9.2,1,2.4,2.8,3.7,2.8l13.8-.8c-7.1,11.7-17.1,20.7-28.3,28.6l-1.5,3.5c-.4,1,2.3,2.9,3.6,3l16.5.8c-7,9-19.8,14.3-20.8,18.1-.2.8,1.4,3,2.2,3.2l12.3,2.3c-8,8.6-16.9,15.4-26.6,21.7-.7.4-2.1,2.1-2,2.9.2,1,1.5,2.3,2.6,3.2,12.6,3.1,24.1,2.3,36.8-.9l-2.5,5.8c-3.8,8.7,12.8,4.4,25.2,0l-2.7,27.8c-3.8,2.5-7.4,5.2-9.9,8.4l-14.2,18c-1.1,1.4-4.3,4.3-6.3,4.4l-24.4,1.7c-3.7.3-7.7,2.2-10.1,4.8l-18.3,19.7-28.8,4c-18-35.9-25.4-75.4-23.2-115.7,2.7-51,22.7-97.6,55.4-135.1,82.9-94.8,228.1-101.4,319.1-14.3ZM227,164.8c-1.9,4.8-3,10.2,0,14.4,2.8,4,7.2,6.6,12.8,5.8,8-1.3,14.2-7,16.2-14.7l7.5,1.8,3.5-8.4-9.3-2.3-.3-11.2-8.6.7.4,9.1-7.9-1.7c4.1-5.9,3.7-12.2-.7-16.4-4.1-4-10.6-3.4-15.7.1-4.3,3-6.8,7.2-6.5,12.5.2,4.7,4.7,8,8.8,10.4ZM247.7,168.6c-.3,3.1-3.4,6.4-7,7-1.5.2-4.4-1.1-5-2.3-.8-1.6-.7-4.7-.4-6.9l12.4,2.2ZM227.4,150.6c.6-1.6,3.5-3.2,5-3,1.8.3,3.8,3.3,3.2,5.2-.7,2.1-1.5,3.8-2.4,4-2.7.7-6.7-3.7-5.8-6.2ZM470.6,209.6l1.2-3.4-7.9-3.9c.4-1.6,1.3-3.5,2.1-3.1l3.6,1.7c1,.5,2.8,1.2,3.2.7.4-.6,1.3-2.5.7-2.8l-2.4-1.2-3.6-1.8c-.6-.3-.2-1.5.4-3.7l8.7,3.7,1.5-3.5-12-5.1-7.8,16.7,12.3,5.8ZM267,229.1l3.6-2.4-6-9,12.1,3.6c.7.2,3-1,3.4-1.4l-10.2-15.5-3.4,2.4,6.2,9.2-11.5-3.8c-1.3-.4-4.9,1.3-4.2,2.4l9.9,14.5ZM195.5,229.2l-19.9-17.4,33.2,2.6,6-7.2-33.3-29.1-6.9,7.5,19.6,17.8-32.1-3.2-6.6,7.6,33.3,29.6,6.6-8.3ZM297.8,193.9l4.6,10.4c.3.6,1.3,2.4,1.8,2.1l2.8-1.7-5.7-13.2,4-1.7c.7-.3.2-1.9-.6-3.8l-13.4,6,1.2,3.3,5.2-1.4ZM232.9,246.4l-4.9,5.2-5-4.6-2.8,3.3,12.9,11.4c.6.5,3.7-1.4,3.1-2.2l-2.2-2.7c-.4-.6-2.7-1.7-2.3-2.4l1.7-3c.4-.7,2.1-2.6,2.7-2.1l2.4,2c.7.6,3.1,2.5,3.5,1.7l1.6-2.8-13-11.5-3.1,2.6,5.4,5.1ZM245.9,248.4c2.7-1.4,3.2-3.6,1.6-6.9l5.2-4.6,4.3.7c.7.1,1.8-2.1,2-2.6l-15.1-7.4c-1-.5-3.4-.2-4.1.7-.5.7-.5,2.7-.2,3.8l6.3,16.3ZM318.8,200.1l-6.2-17-4,1.6,6.5,17.1,3.8-1.7Z"/>
</svg>