<?xml version="1.0" encoding="UTF-8"?>
<svg id="Layer_1" xmlns="http://www.w3.org/2000/svg" version="1.1" viewBox="0 0 1294 966">
  <!-- Generator: Adobe Illustrator 30.3.0, SVG Export Plug-In . SVG Version: 2.1.3 Build 182)  -->
  <defs>
    <style>
      .st0 {
        fill: #444;
      }

      .st1 {
        fill: #2b2b2b;
      }

      .st2 {
        fill: #595959;
      }

      .st3 {
        fill: #393939;
      }

      .st4 {
        fill: #d6d6d6;
      }

      .st5 {
        fill: #454545;
      }

      .st6 {
        fill: #d0d0d0;
      }

      .st7 {
        fill: #363636;
      }

      .st8 {
        fill: #d9d9d9;
      }

      .st9 {
        fill: #5b5b5b;
      }

      .st10 {
        fill: #2c2c2c;
      }

      .st11 {
        fill: #c1c1c1;
      }

      .st12 {
        fill: #3e3e3e;
      }

      .st13 {
        fill: #e5e5e5;
      }

      .st14 {
        fill: #d8d8d8;
      }

      .st15 {
        fill: #ccc;
      }

      .st16 {
        fill: #c4c4c4;
      }

      .st17 {
        fill: #b1b1b1;
      }

      .st18 {
        fill: #c6c6c6;
      }

      .st19 {
        fill: #303030;
      }

      .st20 {
        fill: #c7c7c7;
      }

      .st21 {
        fill: #d4d4d4;
      }

      .st22 {
        fill: #dadada;
      }

      .st23 {
        fill: #575757;
      }

      .st24 {
        fill: #252525;
      }

      .st25 {
        fill: #212121;
      }

      .st26 {
        fill: #cdcdcd;
      }

      .st27 {
        fill: #fff;
      }

      .st28 {
        fill: #d7d7d7;
      }

      .st29 {
        fill: #565656;
      }

      .st30 {
        fill: #dedede;
      }

      .st31 {
        fill: #b8b8b8;
      }

      .st32 {
        fill: #c5c5c5;
      }

      .st33 {
        fill: #d5d5d5;
      }

      .st34 {
        fill: #1f1f1f;
      }

      .st35 {
        fill: #5a5a5a;
      }

      .st36 {
        fill: #202020;
      }

      .st37 {
        fill: #585858;
      }

      .st38 {
        fill: #494949;
      }

      .st39 {
        fill: #c2c2c2;
      }

      .st40 {
        fill: #cbcbcb;
      }

      .st41 {
        fill: #434343;
      }

      .st42 {
        fill: #2f2f2f;
      }

      .st43 {
        fill: #484848;
      }

      .st44 {
        fill: #4b4b4b;
      }

      .st45 {
        fill: #404040;
      }

      .st46 {
        fill: #d3d3d3;
      }

      .st47 {
        fill: #e0e0e0;
      }

      .st48 {
        fill: #c8c8c8;
      }

      .st49 {
        fill: #cfcfcf;
      }

      .st50 {
        fill: #343434;
      }
    </style>
  </defs>

  <path class="st33" d="M930.9,831.5c-13.8,2.5-23.3,0-33.1-10.3-13.6-14.2-27.2-27.2-42.5-39.5l-13.9-11.2-23.9-20.1-17.6-14.5-20.2-16.7c-5.2-4.3-11.4-8-15.4-13.3.2-3.8,4.5-4.6,6.4-7.1,12.2-15.1,21.3-32,29.4-49.4s2.6-2.7,3.4-2l43.7,36.3,19.1,15.8,15.2,11.9,18.6,15.5,23.3,18.6,31.6,22.4c10.5,7.4,13.1,20.2,7,31.6-4.6,8.6-11.4,15.4-17.7,23.2-3.1,3.9-8.2,8-13.5,8.9Z"/>
  <path class="st4" d="M858.8,386.5c1.1-.6,1.4-.7,1.3.6-2.6,3.7-6.5,6.6-10.9,9-2.1,3.6-5.9,5-8.8,7.3l-29.1,22.9-10.6,8.5c-1.5,1.2-4.5,3.3-6.2,1.7-1.6-4,.4-9,.4-13.4l-.2-30.8-1-12.4c-.5-6.2-.6-12.2-3.9-17.7s-3.3-7.6,0-10.4l44.6-37.2c4.8-4,6.5-7.3,4.6-13.8s3.5-9.1,6-12.5c4.7-6.4,5.8-14.6.9-21.5-30-42.2-69-76.7-109.1-109.5l-12-9.8c-1.2-2.1-.4-2.1,1.6-1l5.1,2.3c44.5,34.5,86.8,72.1,118.9,117.7,6.9,12,.6,20.9-6.4,30.7.4,6-.4,11.3-2.5,16-15.3,13.6-30.9,26.9-46.9,39.7-3.6,2.1-3.5,5.2.1,9.1,5.4,22.5,4.6,46.6,3.6,69.6l58.5-45.8,2.2.8Z"/>
  <path class="st32" d="M1048.8,558.6c-2-.1-1.8-2,0-2.8,0-2.9-.2-5.8-.3-8.7l-1.3-.7c-4.9-42.5-13-84.1-27.3-124.6l1.8-2.1c1.5.5,2.6,1.9,3.4,4.3l9.7,33.1,7.3,29.8,2.4,13.2,1.8,10.4,3.3,26.6,1.1,16,1,9.2c.6,5.4-5.2,11-10.6,9.5s-6.9-5.5-8.6-9.4l-19.7-47.3-8.4-17.8c-14.7-31.1-30.2-61-48.4-90.2l-12.5-18.6-13.7-18.1c-6.3-8.3-15.6-9.1-24.2-3.6s-13.7,4.6-19.6,0l-26,20.6-1.3-.6c-.3-.7-.9-1.9-.5-2.2,3.5-3.2,22.3-19.3,25.6-20.3,10.6,2,17.6,2,27-4.2,9.3-3.1,18.5,3.1,23.9,10.4,44.4,60.2,75.7,125,102.3,192.7-2,2,1.6,5.3,3.6,5.7,7.6,1.6,10.1-3.2,8-10Z"/>
  <path class="st28" d="M206.6,386.2l1.3,1.9c-6,13.2-11.4,26.7-16.1,40.5l-2.2,2.1c-7,22.1-12.8,44.3-17.5,66.5.9.1,1,.4.1,1-1.2,4.3-1.5,8.9-1,13.8l-1.4.7c-1,13.6-2,27.2-3,40.9-.5,6.5-1.5,18.8,8.4,13.3,16.8-42.9,36.2-84.6,58.2-125.2l3.1-1c.8-.2.9.6.2,2.3-3.5,6-6.6,11.9-9.8,18.5l-24.2,50.5-21.9,52.8c-1.8,4.3-4.6,7.2-8.5,7.5-13.4.9-8.8-14.6-8.7-31.4s2.2-22.7,4-32l3-15.9c.9-4.6,1-8.5,2.3-13.1l2.6-9.1,2.2-9,3-11.9,5.3-16.9,4.9-13.9,2.1-4.1c.3-1.3.8-2.6.8-4l2.1-4.1c-.4-1.5,2.9-8.6,5-13.7l2.1-3.2c-.1-1.7,1.3-2.7,1.8-3.9,1.1-1.5,1.4-1.8,1.7.1Z"/>
  <path class="st11" d="M417.4,732.6l-21.4,18.4-31.3,25.8-35,30.8-13.8,13.4c-11.3,13.4-30.9,15.5-44.1,3.4l-9.7-11.4c-9.2-10.9-16.2-22.4-10.3-35.3s7-9.1,11.5-12.3l19.3-13.7,10.5-7c2.1-.6,1.8.2.5,1.8l.4,2.2-24.7,16.9c-20.6,16.8-21,24.1-4,45.4,11.9,15,25.1,24.5,42.8,12.1,33.2-32.2,69.2-62.7,105.2-91.7l2.4.6c1.7-.9,2.3-.7,1.8.7Z"/>
  <path class="st15" d="M368.3,287.6c.4,2.2-.3,1.8-1.6.2-9.3-7.7-4.4-16.6,1.2-25.4l10.2-13.4c-2-2.2.4-4.4,2.9-2.9,6.7-8.8,14.1-17.2,22-25.3-1-2.6.6-3.9,3.1-2.6,2.4-3.7,6.2-7.8,10-10.1.3-4.4,3.4-7.7,7.8-8.1,7-6.8,14.4-13.2,22.2-19.2l.5-2.8c24.6-22.3,51.7-42.7,78.5-62.2,1.1-5.5-3.6-6.3-14.2-2.4l-1.8-1.6c-1.9.1-2.1-.7-.3-1.4l14-3.8c2.4-.6,5,3.1,5.4,4.9s.4,6-1.5,7.5l-21.1,15.8-54.1,43.9c-27.8,22.6-62.9,59-83.6,88.2-4.6,6.5-4,14.8.4,20.8Z"/>
  <path class="st26" d="M508.8,110.2l.3,1.4-.3,2.3c-59.9,19.5-117.5,48.9-164.1,92.9l-2.6.2c-10.9,10.6-22.3,20.5-34.3,29.7-9.7,6.3-12.6,6.8-22,.5s0-.6.3-1.2c.5-.6,1.3-.6,2.4-.1,4.1,2.8,8,3.5,11.8,2.4l8.8-5.1,16.6-14.6c28.1-26.5,58.1-50.5,91.9-69.7l36.7-18.5,14.1-5.8c6.6-2.7,12.8-5.2,19.6-7.4l20.9-6.8Z"/>
  <path class="st20" d="M370.9,400.3c-1.3-1.2-1.5-1.8.4-1.7l2.1-.9,42.7,33.7c-.3-29.8-.5-44.8-.5-44.8,0-9,1.4-22.8,7.4-29.7-13.9-13.1-28.5-25.6-43.8-37.7v-1.6c-2.8-2.4-5.2-5.1-7.2-8.2l-.4-13c-2.7-3-4.3-5.9-4.8-8.7l1.6-.2c3.4,4.6,8.3,9.4,6.2,16.2s.2,6.8,3.4,9.5l23.3,19.5c7.4,6.2,14.6,11.8,21.7,18.3s6,3.7,4,7l-4.4,7.2-2.3,11.8-.4,57.8c0,1.3-.8,1.9-1.4,2s-1.4.2-2-.3l-15.7-12.4-29.8-23.9Z"/>
  <path class="st48" d="M764.9,132.9h1.1c0,0,2.9,2.2,2.9,2.2l17.2,8.1c37.5,19.7,70.7,45.2,101.2,74.3l16.6,14.7,9.5,5.4c3.8,2.1,8.1.2,11.4-1.5,11.8-6,17.7,4.4,24.9,12.3,1.5,1.6,3.5,2.6,3.3,4.8-.8,1.4-2.4-.9-3-2.2l-2.1.7c-4.1-5.5-8.8-9.9-14-13.3-4-.7-7.8.4-11.4,3.5-7.6,1.6-15.1-1-22.4-7.7-40.5-38.1-85-74.9-137.2-98.5v-2.4c-.4-1.7.8-1.3,2-.4Z"/>
  <path class="st17" d="M417.4,732.6l-1.8-.7-.3-2.3c10.2-8,20.3-16,30.3-24-14.1-15.5-25.8-33-35.1-52.5l-105.4,87-9.1,7-2.3-.7-.5-1.8c8.9-5.9,16.3-13.2,24.6-19.9l27.1-22.1,55.4-45.5,7.9-7.2c1.1-1,4.1-3.4,5.3-1,4.7,9.5,9,19,15,28s9.8,17.6,17.8,24.2,3.4,2,3.7,3.6-1,2.9-2.2,3.8l-30.1,24.1Z"/>
  <path class="st39" d="M810,549.4c-.4.8-.8.8-1.1,0-1.1-.9-1-2.7.4-5.4-.8.2-.9,0-.2-.8.6-1.4,1-3,0-4.2.2,2.9-2.3,2.6-2.9,0-5.3,2.3-10.5,4.7-15.5,7.4-6.1,2.4-9.7,2.7-4.4-4.1-1.7-.6-1.6-1.3.2-1.7,2.3-3.1,3.3-6.4,2.9-9.9l3.9-8.9c3.7-21.9,5.3-43.8,4.8-66-5.1,2.3-10.2,4.9-15.1,8.1-6,5.8-15.5,7.9-9.6-2.5.6-2.4.7-4.7.3-7l4-11.5c2.4-17.9,3.3-36.1,2.4-54.6l2-1.2c.2-.9.5-.9,1,0l.2,12.9c1.1,5.1.1,9.2,0,14.3l-.4,21.9c-.2,9.9-7.9,19.6-7.8,28.1l21.7-12.4c1.2-.7,2.4-.7,3.2-.3s2.1,1.4,2.1,2.7l-.4,27.7-.9,13.1-1.2,14.8-2.9,12.8-9.2,22.2,19.6-8.7c1.5-.6,3.7,0,4.4.9,1.7,2.4-2.1,7.2-1.5,12.4Z"/>
  <path class="st8" d="M300.3,238.1c-7.1,4.1-6.5-1.7-14.2-2.3l-.8,1.1c-3.4-.9-7.6.9-10.4,3-6.9,5.1-23.9,28.2-29.8,36.5-6.4,6.7-9.1,13.6-8.1,21,.9-.1.9.1,0,.7,7.6,7.7,11.9,13.4,5.3,23.3-1.3,2.9-3,5.5-5.1,7.8l1.3,1.8c-10.4,18-20.2,36.3-29.5,54.9l-2.4.4h-1.7c2.1-4.6,3.7-9.4,6.2-14.1l7.1-13.8,10.8-19.3c4.7-8.4,10-16.1,13.8-25.1s-1.4-7-3.4-9c-11.5-11.6-2.3-22.6,7.4-35l19.8-25.2c2.8-3.6,6.1-7.5,10.7-9s9-1.3,12.2,0,6.5,3.6,10.7,2.6Z"/>
  <path class="st40" d="M603.4,212.9c.2-.9.5-.8.7.2l.7,2.5c-10.6,9.8-21.1,19.8-31.7,29.8l-8.8,15.3c-4.6-1.2-7.9-4.7-10.1-10.6-2.4,1.9-6.8-2.5-5.2-5l-1.9-3.2c-10.6,14.9-21,30.1-31.3,45.6l-3.7,7.8c1.9,9.7,3,19.4,3.3,29-4.7,1-9.1-1-13.2-5.9l.5-2.2c.2-.8,1-.9,2.3-.2,2,1.2,3.1,3.8,6.3,4.7l-.2-9.7-1.3-3.9-1-3.9c.3-2,0-3.8-1.1-5.3-1.1-3.1.3-5.3,2.1-8.1l9.1-13.9,22.9-34.1c.8-1.2,1.8-2.4,2.9-2.7s2.6.4,3.6,1.5l14,16c2-5.5,3.9-10.3,8.1-14.2l28.4-26.5c1.5-1.4,2.4-3,4.5-3Z"/>
  <path class="st49" d="M749,702.2c-1.8-.2-1.5-.6-.1-1.6l-.3-.8,10.4-7.8c2.2-3,4.6-5.8,7.3-8.6-.2-1.3-.2-2.5.3-3.4,6.9-12.6,13.5-25.2,20.1-38,.8-.3,1.8-1.9,3-5-3.3-1.1-7.1-1.8-11.2-2.1-1.4-1.3-1.5-3.2.3-4-1.9-2.4.6-5.2,3-3l3.3-4.1c-2.2-2.4.3-5.2,3-3.5,2.8-3.9,4.8-8.1,6.3-12.7,5.3-19.2,9.7-38.6,13.3-58.2l1.1-.3h1.1c.5,3.9-1.1,7.7-1.9,11.7l-2.7,13-1.6,8.4c-2.2,11.4-4.8,22.8-9.8,33.5l-13.3,16.9,10,.7c2.2.1,2.3,2.6,2.4,3.8s-1.3,2.5-1.8,3.8c-5,13.8-21.4,45-30.8,52.3l-11.4,8.8Z"/>
  <path class="st4" d="M706.1,294c.6,3-.2,6.1-1.2,9v2c-.3,3.7-.7,7.5-2,11v3.5c-.5.8-.8.8-1.1,0-.5,0-.9,0-1.3-.1-1.1-.4-.4-9.5-.2-11.5,2.2-5.8,2.2-11.2,0-16.4-10-16.4-20.6-32.6-31.6-48.4-4.8,5.2-9.4,10.7-13.8,16.5-6.1,4-7.4-1.2-8.6-6.3l-6.6-9.5-30.8-28.5c-1.5-.9-3.1-1.6-4.9-2.2-.2-.1-.4-.2-.7-.2.1-1.7,1.5-2.4,2.5-2.6,1.6-.3,3.8-.3,4.9,1,5.9,6.7,12.7,11.8,19,17.9l14.7,14.3c3.7,3.6,5.3,7.4,6.7,13.5l14.1-15.7c.8-.9,1.6-1.8,2.5-2s3,0,3.8,1.1l8.2,11.8,12.7,18.3,13.7,23.5Z"/>
  <path class="st18" d="M422,543.1c3.1,1.5,4.4,1.2,4-.9v-1.4c-1.1-.9-1.3-1.9.2-1.9.4-.1.8-.2.9,0,12.6,15.8-4.9,8.5-12.3,3.2l-2,1-6.4-2.7c3.7,22.9,8.7,45.4,14.9,67.6l3.3,6.9c-.7,2,0,4.1,2.2,6.1l2.3-.3c1.9,1.9,9.8,12.4,9.1,14.3s-12,4.5-13.2,1.2c-.4,1.6-.9,2.9-1.3,4,1,.8,1.3,1.9,0,2.2-1.1-2.5-2.7-5.4-.5-8,3.6-1.6,6.9-.9,11.1-1.3l-4.4-5.7c-13.2-11.7-15.7-30.6-19.7-47.5l-1.7-7.3-3-16.1c-1.8-9.6-4.8-23.5,1.5-20.4l14.9,7.2Z"/>
  <path class="st47" d="M783,387h-1s-2.1-.9-2.1-.9l-1.6-11.8-27.9,16.7-2.9.4c-1.6-9.7-.2-19.5,1.3-29.3-4.3-18.2-9-36.1-13.9-53.8l1.6-1.9c-2.2-1.5-2.2-1.8.4-2.5,4,4.7,6.3,21.8,8.8,29.5l2.4,7.4c4.9,15,5.2,29.7,1.2,45.9l24.2-14.1c1.8-1,6.4-3.7,8-1.1,2,4.7,1.3,10.8,1.4,15.6Z"/>
  <path class="st14" d="M515.9,743.2l4.8.4c19.4,11.5,37.8,16.4,59.5,13.7,4.5,2.6,5.9,7.3,4,14.2l-9,37.6c0,3.2.9,6.3,3,9.2,1.9.5,1.7,1.3-.3,1.5-13-3.9-4.7-17.5-2.1-29l1.7-7.4,1.7-9.4c.9-4.9,2.1-9.5,0-14.3-9.7,2.8-18.5,3.1-27.5.6l-11.7-3.2-4.1-2.2c-1.9.1-3.3-.9-5.1-1.8l-18-9.1c-1.3-.9-1.5-1.5-.8-2,1.2-1.5,3.3-.4,4,1.1Z"/>
  <path class="st33" d="M764.9,132.9l-2.1.4-1.4,1.6c-22.3-10-45.2-18.1-68.7-24.1-3-.4-4.4,1.7-3.5,4.5,11.5,8.2,22.8,16.9,33.7,25.9s1.3,1.5,1.9,2.4,1.1,1.9,1.5,2.9l-1.6,1-38.3-29.6c-1.1-2-.9-6.7,0-8.3s3.3-3.9,5.6-3.3c24.6,5.9,47.7,14.9,70.8,24.9s1.7,1,2,1.8Z"/>
  <path class="st14" d="M978.3,300l-6.8,10.2c-.9,5.4,3.1,10.1,5.6,14.5,12.1,21.1,24.4,41.1,33.6,63.5l14.4,35.8c-.6-1.3-2.5-3.1-3.4-4.3l-2.5-2.7c-15.4-34.8-32.3-68-50.9-99.8-1.4-4.4-1.6-6.6.4-11s5.6-8.5,8.3-6.3c.7-1.6,1-1.7,1.4,0Z"/>
  <path class="st30" d="M505,316c-.6,0-1.5,0-2.3.2l-1.9,1.2-20.5-10.7c-2.1.4-11.1,36-11.8,40.2-2.3,12.2-3.9,21.7-.1,34.1,1.7,15-5.9,9.6-13.6,3.7v-2.2c-1.5-1.2-1.4-1.8.3-1.6l9.1,4.5c-.3-7.2-1-13.3-2.6-19.8s.5-8.4,1.5-12.7l2.6-11.2,2.2-6.9c1.3-4.1,1.7-7.8,3.1-11.9l6.9-20.3c2.3-1.4,6.3.9,8.4,2.1l18.9,11.2Z"/>
  <path class="st6" d="M454.9,380.9v1.6c-.1,0-2.1,1.2-2.1,1.2l-16.6-8.5c-2.8,27.7-3.7,56.9,4.7,83.5l1.1,4.3c2.1,3,2.1,5.6-2.1,5.6s-20.3-11.5-22.8-13.2l-.3-2.5c.2-.9.5-.9,1-.1,3.1-.4,5.1,1.9,7.9,3.4l13.8,7.4c0-6.5-4.3-11.1-5.8-17.2l-2.2-8.8-.3-56.6,1.3-7.7c.3-1.6,1.2-2.6,2.4-3s1.9,0,3,.7l17.1,9.8Z"/>
  <path class="st21" d="M673,757c-1.3,1.6-3.9,2.1-6.3,2.6l-9.9,2-15.1.5c.8,9,1.6,17.5.5,26.3s-19.3,22.4-30.7,28l-8.4,2.8-4.1.9c-2.1-.4-3.4,0-5.1,1-3.9,1-7.9.6-11.9.1l-4.1-1.2.3-1.5,2.9-1.6c22.5,2.7,59.7-12.6,57.8-39l-1.4-17.1,1.1-2.7c7.5.2,15,0,22.6-.8l2,1.9c3.6-1.5,6.9-2.2,10-2.1Z"/>
  <path class="st13" d="M417.8,452.9h-1c0,.1-.9,2.9-.9,2.9-.7,22.6,1.1,44.9,5.4,67,2.2,5.4,3.8,10.8,4.9,16.2l-.3,1.9c-1.8-.4-1.9-2.3-2.6-3.9-2.5-5-5.2-9.4-6.2-15l-3.3-17.2c-1-5.4-.2-10.7-2.8-15.7l.4-34c0-2.2,1.2-3.7,3.2-4.1s2.9.3,3.3,1.9Z"/>
  <path class="st16" d="M454.8,691.2c1.6-1.6,6.5,1.9,6.2,3.8,4.5,3.9,9.1,7.6,14,11l2.5-.2c.7.4,11,8,11.2,8.7s.1,1,0,1.5l6.4,3.5c1.4.8,1.7,1.6,1.1,2.5-.4,2.2-1.3,2.1-2.9-.3l-2.5-1.5c-14.1-10.4-29.9-19.4-41.9-33.2s-18.4-29.5-25.4-44.8v-2.2c.5-1.4,1.5-.8,2.9,1.8-.1,3.2.9,4.8,3.2,4.6,6.8,14.8,14.4,29.7,25.1,42.2v2.7Z"/>
  <path class="st46" d="M371.2,398.6l-.4,1.7-5.1-3.1-36.8-29.6c-4.9,1.3-9.8,3.7-14.3,1.6l-11.5-5.3c-3.4-.8-7-1.4-10.4-.1-.7.6-2.1,1.6-2.9,2.2-1.7,1-2.5.9-2.5-.3-.5-6.7,10.6-8,15.8-5.8,8.2,5.3,16.1,6.6,23.8,3.9l3.8.5,40.7,32-.3,2.3Z"/>
  <path class="st14" d="M289.9,365.9c-5.6,4.2-9.7,10.1-14.3,15.6-9.2,11-16,22.7-23.2,34.9l-15.5,26.5-.2-2.3c-1.6-1.2-1.4-3.4.6-6.5l26.8-44c6.2-9.2,13.3-17.6,21.1-25.1l2.2.6,2.5.3Z"/>
  <path class="st31" d="M748.9,700.6v1.6c-9.4,7.4-18.9,14.7-30.6,20.5,2.3,4.5,2.3,8.7-1.3,11.4-8.7,6.7-18.3,11.5-27.9,15.9l-2.9,1.9c-3.5-.5-4.5,2.5-8.1,3.2l-4.1,1.9c-.2,0-.8,0-1,0l-10,2.1v-2.2c11.6-4.4,22.9-9.4,33.9-14.9l2.2,1.2,1.1-1.4c6.7-2.8,12.2-6.7,16.5-11.6-1.5-6.8.3-10.9,5.4-12.1-.9,0-.9-.2,0-.7l4-1.1c-.2-.4-.4-.8-.5-1.3-.1-.8,12.3-9.6,13.1-9.8l2.3.9c1.6-2.4,5.3-5.8,7.9-5.4Z"/>
  <path class="st20" d="M953,253.1c9.2,9.8,17.1,20.7,24.7,32.1,3.2,4.9,3.4,10.4.6,14.8h-1.4c0,0-1.6-1.7-1.6-1.7.8-3.3,1.4-7.9-.6-10.8-7.9-11.6-16.2-23.1-25.7-33.5-1.2-1.5-.7-2.3,1.1-3.1l3,2.2Z"/>
  <path class="st4" d="M737.1,303.8c0,.8,0,1.6-.4,2.5-.3.4-.7.6-1.1.8-5.6,1.5-8.7,3.1-14.1,6.3-6.2,3.7-12.2,7.5-18.1,11.5-3.6-.7-5.2-4.5-1.5-5.5.3,0,.8,0,1,0,1.7,1.4,3-1.2,4.4-2l21.7-12.4c.7-1,1.9-1.6,3.1-1.8.9-.9,4-.4,4.9.6Z"/>
  <path class="st22" d="M496.4,722c.5,2.5.6,5.4.2,8.6.6,1.4,12.9,8.4,15.6,9.9s.7.8-.2,1.5l.8,2c-6.9-3.5-13.5-7.7-19.4-13.3.8-6.3,2-7.4-2.5-10.7l5.5,1.9Z"/>
  <path class="st14" d="M303.2,363.9h-10.4c3-2.8,6.8-1.7,10.4,0Z"/>
  <path class="st14" d="M593.9,821.1c-3.1,1.9-8.5,1.2-11.9.1h11.9Z"/>
  <path class="st13" d="M422,543.1c1.3-.3,2.6,0,3.6.9.4-1,.4-1.4.4-1.7,1.4-.3,3.2,2.9,2.1,3.3-2.7.9-4.7-1.7-6.1-2.4Z"/>
  <path class="st4" d="M703,316l2-11c0,3.7,0,7.8-2,11Z"/>
  <path class="st22" d="M540,757.2c-1.3-.3-3.8.2-4.1-2.2,1.6-.1,3.3.7,4.1,2.2Z"/>
  <path class="st21" d="M678.1,755.1c-.9,1.3-2.3,2.3-4.1,1.9.9-1.3,2.4-1.9,4.1-1.9Z"/>
  <path class="st8" d="M193.9,411c0-1.7.4-3.4,2.1-4.1.4,1.5-.6,3.4-2.1,4.1Z"/>
  <path class="st4" d="M705,303l1.2-9c1.6,2.7.4,6.4-1.2,9Z"/>
  <path class="st8" d="M191,419.1c.6-1.6,0-3.5,2.1-4.1-.4,1.6-.5,3.2-2.1,4.1Z"/>
  <path class="st30" d="M508.8,303.2c-.4-1.7-.5-3.7-1.1-5.3,1.9.8,1.6,3.4,1.1,5.3Z"/>
  <path class="st47" d="M732.2,303.2c-.8.8-2.1,1.2-3.1,1.8.3-1.4,1.6-2.2,3.1-1.8Z"/>
  <path class="st21" d="M689.1,750c-.4,1.1-1.6,2.1-2.9,1.9,0-2,1.9-1.5,2.9-1.9Z"/>
  <path class="st8" d="M200.9,393.2c.5-1.1.2-3,2.1-3.2,0,1.4-.8,2.8-2.1,3.2Z"/>
  <path class="st33" d="M768.9,135.1c-1.1-.5-2.7-.3-2.9-2.1,1.4,0,2.6.7,2.9,2.1Z"/>
  <path class="st30" d="M511,311c-1.6-.7-1-2.7-1.3-3.9,1.9.5,1.3,2.4,1.3,3.9Z"/>
  <path class="st14" d="M603.1,819.1c-1.4.5-2.5,1.2-4.1.9.8-1.3,2.6-1.2,4.1-.9Z"/>
  <path class="st38" d="M782,718.3c.8-2.6,2.7-2,4.9-.8l12.4,11c4.9-6.4-.3-8.5-6.7-6.4-2.5-2.6-4.3-5.8-5.5-9.6-5.4-6.3-5.2-13.8.6-22.5-1.3-4.2-.4-7.1,2.5-9,.3-6.7,4.3-11.4,7.7-2.7-1.3-4.9.5-7.8,4.8-10.1.9-9.5,5.4-4.8,9.3,0-3.5-2.9-4.9-8.3,1.1-7.8l1.2-1.5,50.6,41.3,46,37.9,23.3,16.8,19.8,14.3c8.4,6.1,12.5,17.1,7.3,27.5s-13.2,19.4-21.5,27.8c-4.3,4.3-12.5,6.5-18.5,6.1-9.7-.6-17.5-6.3-23.9-13-13.9-14.6-28.3-27.4-43.8-40.1l-24.2-20-47.2-39.4Z"/>
  <path class="st5" d="M782,718.3l-2.1-2.3-12.9-10c-.4-1.9,1.9-3,3-4.1,6.4-6,12-13,16.9-21l1.1,1c.9-1.6,1.6-1.8,2.1-.8-1.8,2.9-.6,5.8-.5,9.2-2.6,8.3-8.7,12.5-.9,21.2l4.2,9.1c3.3-1.8,7.4-1.9,9.6,1.2s-.7,9.5-4,8.9l-7.8-7.2c-2.7-2.5-4.9-5.3-8.7-5.1Z"/>
  <path class="st41" d="M814.1,658.9l2.2,5.2-5.4-2.4c-1,3.2,2.1,4.3,2.7,5.8s-1.2,2.9-2.2,2.7c-3.2-.7-3.8-5.6-6.9-5.9.8,3.8-.2,5.6-2.6,6.7-5.5,2.5-.5,9.2-2.5,10.1s-4.2-2-5.7-6.5c-2,2.1-2.5,4.5-3.7,6.5l-2.1.8-1.2-.5c3.6-6.8,7.1-13.6,10.3-20.5l5.7-11.2,11.5,9.4Z"/>
  <path class="st38" d="M788,681.8c-3.7,1.5-5.2,5.3-6.9,9.2l-5.9,7.1c-1.7,2.1-2.4,4-5.2,3.7,5.4-5.1,9.3-11.1,13.4-17.6l6.2-9.9,7.5-13.6c0,5.2-4.4,9-6.4,13.9l-2.7,7.2Z"/>
  <path class="st38" d="M779.9,716c-4.6-1.9-12.6-8.8-12.9-10,4.7,2.6,9.8,5.4,12.9,10Z"/>
  <path class="st43" d="M762.8,133.3l6.4,3.6c38.8,18.4,71.6,40.7,103.4,69.6l28.9,26.1,9.7,6.2c4.2,2.7,8.7,2.9,12.5,0s11.5-3.9,16,.9l10.4,11.3c-.1,1.4.6,2.2,1.7,3.4,8.9,10,16.9,20.4,24.2,31.6,2.9,4.4,2.2,9.4.9,14-3,2.5-6.6,5.7-7.6,10.3s1,7.2,2.6,9.9l17.2,29.9c13,22.6,23.2,46,32.6,69.7-.2,2.8,1.7,5.1,2.6,8.1l11.9,41.8,5.8,26.3,3.5,23.7,1.9,15.2c.9,7.1,3,13.8,1.4,20.9l-1.4-.5c-.4-8.2-.4-6.9.2,3.9l1.3-.6c2.6,1.6,1.6,9-2.2,10.5s-5.4,1.1-7.9-.8-3.5-5.3-4.7-8.3l-8.8-22.3-4.9-11-19.4-42.3-8.9-18.3-11.6-21.5c-13.6-25.2-28.3-49.2-45.9-71.8-7.3-9.4-16.2-15.5-26.2-9.5-15,9-20.9,0-24.8,3.2l-16.1,12.8-8.5,7.3-38.1,30.1-23.7,18.2c-2.1-4.7-.1-8.6-.1-12.8l-.2-26.9-.7-11.2-1.4-14.5c-.5-4.8-2.4-9-5.9-12.4,2.1-4.7,6.3-7,10.1-10.2l38-31.9c10.7-9-.7-13.2,8.5-23.7,11-12.6,5.3-23.3-5.4-35.9l-6-7.1c-7.3-8.6-13.8-17.2-21.8-25.2l-23.6-23.6c-20.3-18.7-40.9-36.2-62.2-52.9s-24.7-20.2-38.2-29.5-1.3-4.6-.6-5.9,3.1-2.8,5.5-2.3l14.6,3.6,19.6,6.6,35.6,14.3Z"/>
  <path class="st19" d="M1048.7,555.8c.3.8.1,1.6,0,2.8,0,2.4.6,6.7-1.7,8.5-3.5,2.8-8.4.1-10.4-2.7.7-.8,1.5-1.5,1.8-1.5s.9.8,1.1,1.6c.4,2.2,6.3,2.4,6.4.6l.2-15.2c0-1.3-.2-1.6.7-2.5,1.9-2,0,3.7,1.8,8.4Z"/>
  <path class="st43" d="M423.9,199.9c-.7-.9-2-1.7-3.9-2.3-3.5-2.6-1.3-8-1.7-2.4s-2.4,12.3-8.5,12.1c-2.7,6-6.4,6-12.3,5.5-13.3,4.8-5.1,4.4,2.4,1.6,7.1,3-.3,10-5.7,7.9l-2,.6c5,3.4.8,9.2-3.5,6.2l-5.5,4.7c.7,6.7-2.8,11.2-9.4,11.5-3.3,1.7-5.9,4.6-7.8,8.6-7-.9-7.8-.9-1.3,2.2,1.6,2.7.5,5.4-3.2,8,2.8,4.1-1.7,14.2-7.7,11.2l.2,3.3c4.3,2.3,12,8.7,6.6,12.7l2.1,3.6c4.8,2.1,7.7,5.7,1.4,8.2,3.8,1.1,5.1,3.6,2.6,7,2,1.2,3.6,3,4.9,5.6l3.8,2.3c.4-1.1,1.1-1.1,2.2,0-3.2-2.1-5.5-4.7-7.1-7.9-.8-2.7-.6-11.8.5-14.2-2.7.4-3.6-.4-5.3-2.8-2.6-3.7-5.9-10.5-6.9-14.7.3-3.2,2.1-8.4,3.4-11.4s12.3-19.1,13.7-19.4,1.6.6,2.2,1.2c-4.2,8.5-11.4,14.2-15.3,24.7s1.4,10.4,3.9,14.1,1,3,3.1,4.7c5.4,4.6.8,14.1,2.8,17,4.2,6.3,10.4,10.1,16.1,14.8l34.6,29.4c1.6,1.3,2.4,3.6.8,5.3-4.5,4.5-4.6,9.9-5.2,16l-1.2,11.8c-.6,15.8-.2,31.1.6,47.6-5.1-1.2-7.9-5-11.6-7.9l-25.8-20.2-9.6-7.6-40.6-32.2c-2.7-2.1-7.4.9-9.9,1.2-11.1,1.3-21.5-14.4-33.3-1.9s-4.1,3.4-6.1,5.8c-6.6,8-13.1,15.5-18.6,24.4l-23.7,39.2-2.4,5.6c-4.1,5.4-6.8,11.6-10.1,18l-5.5,10.6-8,16-7,15c-5.6,12.1-10.9,23.7-15.8,36.1l-11.4,28.5c-1.3,3.4-3.3,4.9-6.6,5.2-9.8.9-7.7-11.2-6.6-25.3s1.6-18.4,2.9-27.8l2.5-17c-.2-1,0-2,1.2-1.8,2,.8,2.3,3.1,1,6.7,1.8,3.1,2,5.6.6,7.5.2.3.3.9.6,1,2.3,1,2.5,7.3-.7,7.4-2.5-.1-1.5-5.9,0-7l-.6-.8c-1.9.9-1.8,11.1-1.2,11.3s8.2-6.1,8-6.6-3.2-8-3.5-8.5c-4.6-1.2-4.8-9.9.6-8.1,2.1,2.1,2.6-8,2.4-10.2-.4-4.9-1.4-9.9-2.7-2.3.4,6.5-1.1,9.4-4.7,8.6-.8-2.5.4-5,1-7.7l6.7-28.4c3.1-13.1,7.3-25.4,12-38.1l8.6-23.4,6.1-13.2,7.5-15.3,23.1-41.7c2.6-2.8,9.3-14.3,9-17.6-2-5.1-5.1-9.6-9.2-13.5,0-.2,0-.5,0-.7-.6-2.6-.8-4.9-.2-7.5,1.4-5.6,27.2-38.9,32.8-44.5,10.4-10.5,12.7-10.6,25.4-3.8,4.6.3,8.9-1.4,13-5,11.9-9.2,23.3-19,34.2-29.6,2.3-3.4,5.5-6,9-8.9,23.8-19.9,48.4-38.5,76.4-52.2l30.3-14.9c13.9-6.8,28.1-11.7,42.9-16.1l8.4-3.2,11.9-2.7c2.4-.6,4.7.7,5.8,2.1s1.1,5.2-.5,6.3c-10,6.8-19.1,13.8-28.6,21.3-16.1,12.7-31.9,25-47.2,38.7-3.3,3-6.8,5.1-9.9,8.1l-13.2,12.6-3.4,1.8Z"/>
  <path class="st45" d="M172.3,498.1c0-.3,0-.7-.1-1,3.7-2.1,1.9-6.9,2.9-9.9,1.6-4.3,1.8-7.4,2.7-11.7s2.2-6.8,2.4-10.6,1.6-6.4,2.6-8.3c1.7-3.1,1.7-6,2.3-9.8,1.1-6.2,5.7-12,4.3-16.1,3.1-.1,3.2,1.5,4,3.1,1.2,2.5-4.5,3.3-1.1,9.7s-3,9.1-3.7,15.1c-1.4-.4-2.6-.7-3.2-.4-1.4.6-2.8,11.4-3.5,12.8-2.7,6-2.7,10.3-.9,16.7s-.4,13.1-2.2,18.2l-3.6-4.4c-1.1,1.6-.9,3.6,0,4.2l2.9,1.9,2.5,7.3c.3,1,2,1.6,2.2,2.3.3,1.3-8.3,6.1-12.7,12l-.2-14.5c0-1.3.5-2.5,1.5-2.7s1.4.3,1.9.6l.6-.6c-2.3-4-1.9-9.4-1.7-14.2Z"/>
  <path class="st43" d="M415.6,731.9l-24.3,20.4-54.3,45.6-25.9,25.1c-4.3,4.1-10.9,7.1-17.2,7.5s-13.8-2-18.4-5.9c-8.4-7.2-14.8-16.1-20.5-25.3s-4.9-18.7,1.8-25.7,8.6-8,13.6-11.5l23.3-15.9,10.1-7.8,34.9-29,7.3-5.8,20.3-16.6,31.6-26.4c4.4-3.7,9.3-6.4,12.7-11,2.4,2.5,3.3,4.6,4.6,7.2,5.9,12,21.2,38.1,29.2,44.7s3.5,2.6,3.1,4.4-2.3,2.4-3.8,3.6l-8.3,6.7-19.7,15.5Z"/>
  <path class="st5" d="M423.9,199.9c-2.7,2.7-5.2,5.5-7.8,8.1-3.8,2.4-7.6,6.4-10,10.1-.8.9-2.2,2.1-3.1,2.6-7.9,8-15.3,16.4-22,25.3l-2.9,2.9c-2.6.5-2.9,3.4-4.7,5.6l-6,6.9-5.9,11.1c-1,2.2-1.1,7.9,0,10.1,1.7,3.2,4.3,5.2,5.3,9l4.1,4.4c-.1,1.8-.4,2.2-.9,1.2-1.4,8.6.5,15.1,5.7,19.5l-.4,1.3c-2.3-1-5-.8-6.9.9-.6-.2-1.4-1.1-1.3-1.4s.9-.7,1.5-.9c1.6-.4,1.6-1.8.9-2.6-1.9-2.1-5.2-1.7-5-3.5s.7-2.3,2.1-3.6c-1.6-2.1-5.3-1.6-5.4-4.2s4.4-1,4.6-3.1-4.7-.8-6.4-6.2-2-2.5-1-3.3l3.1-2.5-5.6-5.6c-1.5-1.5-3.8-1.1-3.9-3.7s-1.1-5.4,2-5.2,3,1.4,4.1.6,3.7-5.6,2.9-6.7l-2.2-2.9,5.8-5.9c-4-1.1-6.9-3.3-6.8-6.9,2.9-.5,4.8.5,7.6,1.2,4.5-12.8,12.5-7.7,14.9-11.3s1-5.8.9-8.8c4-.8,5.3-3.6,7.3-6.4l2.3,2.2c.8.8,2.9,0,2.5-1.3-.4-1.2-3.7-2.6-2.8-4.7s4.9-2.2,6.9-1.4,2.6-1.1,3.4-1.6.1-3.3-.7-3c-3.4,1.2-5.6,2.4-9.4,2.3s-3.2-3.9-1.9-4.6c3.2-.6,5.7-2.4,8.5-3.1s5.2.8,7.7-.2,2.2-3.4,4-5,4.1-.4,4.9-1.5.8-2.8,1.5-4.1c3.3-5.7-1.3-7.5,1.4-9.1,4.5-2.7,2,2.7,5.4,5.7s1.7-.1,2.3-1-.8-7.6,3.2-10.3,5.7-.7,8.4-.2l.8-5.7c2.8,0,4.6-1.4,4.5-4.4,2.7.7,4.3,2.1,5.4,5.3-4.7,1.3-7.6,4.2-10.7,7.4l-11.9,12.1Z"/>
  <path class="st43" d="M403,220.8c-.7,2.8-2.9,4.3-4.8,6.4l-17.2,18.9c-.6-2.2,1-3.2,2.3-4.8,5.1-6.1,17-19,19.7-20.5Z"/>
  <path class="st43" d="M416.1,208l-10,10.1c-.4-2.6,2.2-3.5,3.8-5.2s3.2-5,6.2-4.9Z"/>
  <path class="st44" d="M236.9,297.3c-4.3-7.9,4.9-17.8,11.8-26.6l12.2-15.8c7.6-9.9,14.1-19.8,25.1-19,3.8,2.9,9,6.3,12.1,5.1,16.2-5.8,29.5-24.2,44-34.1-2.8,4.2-7.1,7.4-11.2,11.1l-8.9,8c-2.6,2.3-5.2,5-7.9,6.9l-12.6,8.6c-5,3.4-12.6-2.5-18.6-4.3-2.5.7-7.4,2.3-9.2,4.5l-12.7,15.5-6,8-9.4,11.6-8.2,12.8c-1.3,2-.1,6.1-.5,7.9Z"/>
  <path class="st12" d="M772,461.2c-.3,2.1-.4,4.3-.3,6.6,2.8.5,4.7,1.3,3.4,4.4-1.9,4.6-17.7,15.6-22.6,18.7-2.3,2.1-4.1,2.4-5.6.9-8.8,6.4-17.4,13-25.8,19.9.9,1.1-1.5,2.7-2.5,2.8-6.6.4-4.6-4.5-1.7-8.1-18.1,2.8,1.9-18.6,7.9-5.5-1.1-4.3-.5-8,1.8-11.1-4.2-4.7.9-6.6,5.1-7.9,4.6-4.2,3.9-4.4-2.1-.7h-2.3c-3.2-4.6-7.3-7.4-12.3-8.4-1.1-2.7-2.6-4.1-4.6-4.3-1.2-2-3.2-1.9-5.9.2-9.4,0-18.7.8-28,2-13.7-5.1-16.2,10.7-14.4,20.9,2.1-2.8,3.9-3.3,7.1-1.7,5.1,6.3,10.9,11.7,17.6,16.2l4.1-2.5c2.1-.5,14.2,2.1,16.2,3.7,2.9,5.9,8.5,12.5,14.6,6.2,6.7-1.1,13.8-5.7,19.5-9.5,0-.9.3-.8.7,0,13.6-6.8,26.9-14.1,40.1-21.9l1,.7c.4,11.5.4,22.9,0,34.4l2.7,12.3c-3.3,4.4-3.2,7.2.4,8.4,2.1-.5,1.3,1,.4,2.5,0,.5,0,1.2-.2,1.7-2.8,2.2-2.9,4.7,0,6.9,4.1,1.6.4,7.2-1.9,9.6-9.1,5.8-18.2,11.7-27.2,17.6-.4.7-.6.6-.8-.2l-8.3,5c2.2,1.8.5,3.4-1.9,2-12.2,6.6-23.8,14.2-34.9,22.8.6,1.3-1.4,2.7-2.6,2.7-6.4-.1-5.4-4.6-1.4-8.2-2.2-5.1-3.8-12.3,4.2-12s5.6,2.9,3.8,7.2c.7.5,1.6-.7,2.7-3.6-2.9-8.2,9.3-23.6,14.8-12.7l2.7-2.5c4.9-.5,7.8-2.9,8.7-7.1-7.1-2.6-3.7-11.2,2.6-8.1,3,5.7,14.7,3.8,12.2-2.6-1.5,2.6-5.7,0-4.9-2.7-13.4-10.3-27.1-20.8-41.2-30.2-2.6,1.5-3.8.3-1.9-2.1-5.8-5.6-10.7-6.6-14.8-2.9,0,2.7-.6,3-3,1.8-1.8.8-3.5,1.8-5.1,3.1l.5,2c-18.6,12.1-37,24.2-55.5,36.3l-1.8-1.5c-5.3,2.5-2.6,7.9,2.7,6.8,14.7-8.1,29.4-16.1,44-24-1.5-2.4-.6-3.1,1.8-1.8l6.3-3.1c-2.1-2.1-.7-3.5,1.9-1.9,4.4-2.4,8.8-3.8,13.1-4.1,9,5.4,18,10.8,27.2,16.2,0-.9.2-.9.7,0,4.6,2.7,8.7,5.7,12.4,9.2-5.3,6.4-17.7,19.5-26.6,12.7-6.2-4.7-1.2-7.9,4.7-7.6,2.4-.5,11.7-3.7,6.7-3.5-7.2-1.6-14.5-2.5-22-2.6.4,2.2-.6,3-2.2,4.1-3.7,2.6-19.3,1.4-12.8-5.5-2.9-1.5-18.9,3.9-19.6,4.7s-1.9,6.8-2,7.5c4.2,7,1.8,15.6-1.2,22.6,3.9,3.7,7.9,7.2,12,10.6,1.8,2.6,2.7,5.6,2.8,8.9l9.1,1.9c2.9-4.4,7.4-6.9,13.6-7.6,3.8,4.6,6.6,5.3,8.4,2.3,6.9-2.7,13.5-5.9,19.9-9.7,0-.9.4-.8.8,0,18.2-9.4,36.2-19.3,53.9-30,.4.2.6.8.8,1.4.6,1.9-3.8,29.6-5.2,30.1-4.6,1.8-4.9-8.8-4.6-11.6-3.5-1.4-5.6-1.1-6.3.9,2.4,6.2-2.2,12.8-6.4,5.4l-2.2.3c-3.9,4.7-7.9,9.1-12,13.3-2.3-.3-4.1-1.7-5.2-4.3-1.7,2.9-4.5,2.6-7.2,1.2.5,8.3-8,10.2-14.7,8.4-5.1,8.3-4.8,13.5.9,15.5,1.8,2.1,2.4,4.8,1.8,8.1l5.8,8.7c5.9-.7,10.1,4.6,2,4.9-4.6,1.8-8.6,4.4-12.1,7.9.4.7.9,1.7.5,2.1-1,1-9.6,7.4-10.2,7.4s-1.6-.2-2.3-.8c-4.6,2.2-8.6,5.4-12,9.6.6,1.6-3.2,3.7-3,3.5,5.6-4.1,14.3,5.8,14.9,11.4,11.5,5.8,11.9,6.1,1,.9l-1.8-6.8c-3.2-2-7.1-5.7-5.2-9.6s29.7-16.2,34.2-13.5l2.8-1.6c2.8-.6,24.9-4.8,25.7-2.4s-1.8,3.6-2.8,4.6c2.4,1.3,1.9,2.1-.7,1.9-3.9,6.9-7.9,13.6-12.1,20.4,2.1,2,.3,3.4-2,1.9l-.3,2.2c-1.9-.5-1,.4,2.8,2.7,1.6,2.2-2.1,3.5-4.4,3.2-1.6,3.6-6.6,8.2-10.7,7.5-.3,3.5-3.8,7.9-7.1,6.2-1.9-.4-3.4.5-4.5,2.8.3.4.5.8.5,1.2s-8.7,4.7-10.1,2.8c1,2,.5,5.2-1.3,6.2l1.1.4c1.2,5-1,9.3-6.6,12.9v.8c-3.5,1.6-6.6,3.6-9.2,6l-22.2,10.6-13.9,5.4c-7.7.2-15.3,2.1-23.8,0l1.2,13.6c.7,7.2,1.1,16.6-4,22.8-14.2,17-36.6,26.5-58.3,22.9-4.9-.8-5.7-7.2-4.6-11.5l5.5-22c2.3-9,6.1-21.7,1.9-25.6-11.7-.6-19.9,2.5-32.7-1.7-11.5-3.8-22.1-8.5-32.3-14.5-6.6-3.9-13.1-8.2-19.5-12.8-.3-.4.4-9,1.4-9.3.4-1.6.4-2.3-.7-3.5-7.9-1.8-12.8-5.9-14.8-12.1-.3-.3-8.1-1.3-7.2.4-5.5-2.2-9.6-6.3-14.1-9.9l-6.2-4.9c-2.9-5.7,0-6.1,8.5-1.1l-15.6-26.6c-1.1-3.2-1.2-4.8,2-6.7s22.2,2.4,24.7,2.9c10.4,2.1,20.1,4.5,29,10.8-7.3-6.4-15.1-11.9-23.5-16.6-16.2-2.4-32.4-4.9-48.3-8.9.2,1.3-1,3.4-2.2,3.1s-6.2-10.7-4.4-11.9c3.7-.6,7.6-.2,11.9-1.7l-10-13.4c-2.6-3-5.6-7.9.3-8.2,2.5-9.8,2.3-19.9-.7-30.3-2.5-5.8-2.6-10.8-.4-15.1h2.6c21,12,42.4,23.5,64.1,34.3l-54.7-35.4c-8.1-2.8-11.5-7-10.1-12.7-4.1-2.5-3-3.9,3.3-4.4-.9-5.3-3.2-10.5-7.1-15.7-1.2-3.5-1-4.2,2.8-5.4.8-15.2,1.7-30.3,2.7-45.3,0-2.4,1.6-2.7,3.8-2.7l65.7,34.8c-19.3-12.2-38-25.3-56-39.3l-1-2.6c.8-3.9.7-7.2-.2-10-1.4-4.1-2.6-8.3-3.5-12.5,3-3.1,5.3-1.3,7,5.4-1.1-16.7-1.6-33.5-1.4-50.3-.3-5.3,1.3-7.8,4.8-7.4,16.8,8,33.5,16,50.3,23.9l-24.5-18.9c1.2-12.2,1.8-24.5,1.8-36.8,1.8-12.3,4.5-24.4,8.2-36.2-.3-5.3,1.5-8,5.5-8.1l25.2,12.4c5.9,2.1,8.3-2.7,7.1-14.4v-17.5c-.5-5.2,22-40.6,24.4-41,3,2.2,5.8,5.1,8.3,8.6l2.1-.5c6.7,10,14.2,19,22.5,27.2l.2-8-11.2-19.8c-1.5-5,.1-10.9,6-9.3l15.1,17,14.9-11.4.4-28.5c1.4-5.5,6.3-1.7,9.3.8,4.3,3.2,28.1,23.9,29.2,27s.7,6.7-.5,9.7c-5.6,7.3-8,14.6-7.2,21.9,9.5-11.1,18.5-22.5,27.2-34.2,3.9-2.2,5.7.3,8,3.4,7,10.8,13.7,21.8,20.2,32.9.3,9.9.2,19.9-.2,29.9.6,3.8,2.9,6.4,6.8,5.8l17.4-7.4c6.1-4.9,10.4-5.6,13.1-2.2l9.9,36.7c0,8.5.9,16.9,2.6,25-.5,6.6-.2,8,.8,4.5-.7-2.4.9-19.4,5.2-12.7.3,3.5.2,7,0,10.6,1.2,2.9.5,6-2.2,9.4-7.5,8-15.9,15.1-25.1,21.3,15.6-6.5,30.9-13.5,46-20.9l2.3,1.7c1.8,7.4,2.7,15,2.7,22.9,1.8,10,2.3,19.9,1.5,29.8,3.9.2,2.1,6.7-.1,8.5Z"/>
  <path class="st35" d="M701.8,319.4c0,1.2-.5,3.1,1.2,3.9,8-7,17.4-11.6,26.5-16.7,2.6-1.5,5.1-2.6,7-.3l5.3,19.8c3.2,12,6.9,23.5,9.1,35.8l-2.8,20.3c-.4,2.7-1.4,5.1,0,7.7l29.3-17.4c1.2-.7,2.3.3,2.7.9s.6,2.3.7,3.4l1.1,10.1-.3,40.9-.9,9.1c-.5,4.7-2.3,8.9-3.7,13.1l-3.8,11.1c-.7,1.4-.9,1.6-1.3,0,1.3-1.9,2.2-4.7.8-6.8-.7.1-1.7.5-2.3.3-2-.8.7-14.8.1-18.6l-2-13.1-.7-11.1c-.3-4.2-.2-8.8-2.3-12.1-15.8,8.4-30.8,15.7-46.8,22s-2.5-.6-2.7-1.4c-.3-1.4,1-1.7,1.9-2.4l14.9-11.3c11.3-8.6,15.2-14.3,13-27.7h-1.5c0,0-.4,10.9-.4,10.9,0,2.7-1.5,4.9-3.7,6.2-1.7-2.2-1.5-4.8-1.2-7.1.6-4.4-1.4-7.4-1.6-11.4l-.9-16.3-3.4-12.5-6.8-25.2c-2.1,0-3.7.7-4.9,1.6-4.7,3.5-9.9,4.7-15,6.9s-6,3.6-9.5,3.8-7.7-4.5-7.7-8.2l.3-15.4.2-12.6c0-4.2-12.9-20-19.8-32.9s-3-4.4-4.9-4.2l-15.2,20-13.8,16.9c-3.6-3.7-3-8.2-1.8-12.5l7.2-13.7c1.1-2.1,1.5-7.8-.3-9.4l-7.9-7.2c-4.5-4.1-8.6-8-13.4-11.7s-6.7-7.3-12.6-9.7l-.4,31.5-6.7,5.3c-3.5,2.7-7.2,4.6-9.7,8.1l-16.9-19.2c-1.6-.5-3,2.5-3.3,3.8s.6,3.7,1.6,5.3l9.7,17.1c2,3.5.6,9-.5,13.4-6.6-4.2-10.4-10.1-14.8-15.8l-11.1-14.6-6.4-7.9c-2.1,1.7-5.4-.8-5.1-3.5s5.7-10.3,8.3-7.5l2.2-1.2,9.4,9.5c2.2-9.1,7.4-15.9,14.3-21.8s10.7-9.8,16.1-14.9,7.7-5.9,10.2-9.8c2.6-2,4.5-.9,6.8,1.2l25.5,23.5c5.6,5.1,11.2,10.3,12.9,18.1s.5,3.2,2.3,3.2,2.1-.7,2.8-1.7l9.7-12.4c1-1.3,3.3-4.8,5.8-3.7l27.2,40.5c11.6,17.3,5.4,19.9,5.1,27.4l-.4,10.2Z"/>
  <path class="st9" d="M786.4,540.4l-.4-2.5c-.2-1.3,0-2.6.8-3.9-1.5-5.6-2.8-11.3-4-17.2.5-10.9.6-21.9.1-33-.6-.5-1.2-1-1.9-1.4,0,0-13.1,7.2-39.2,21.5h-.7c-2.2,1.8-17.2,10.3-18.8,10.1s-1.9-.8-1.4-2.1l26-20.1c2.3-1,4-2.1,6.2-3.7,7.7-5.4,15.5-10.4,21.1-17.8-1.7-.8-2.9-1.3-3.8-2.4.6-2.3.5-4.8,1.7-6.7h1.3c-.6,1.6-1.3,3.6-1.1,5.9,4.1,0,6.5-3.3,9.7-5.1l14.1-8c.8-.4,1.8-.6,2.4-.6.9,0,1.7,1.1,1.7,2.6l-.2,20-1.1,21.9c-.3,6.1-1.9,11.8-2.1,18-.2,5.9-4.1,11.3-5.9,16.7-1.1,3.2-1.8,6.1-4.3,7.8Z"/>
  <path class="st9" d="M808.8,549.3c-.1,1.6-1.8,3.5-1.6,5.7s-1.2,5.5-1.7,8.3l-3.2,17.8-6.9,26.1c-1.4,5.1-3.4,10.2-7.1,13.3-3.4-.1-2.5-3.8.8-3.5-.6-.7-.9-1.5-.5-2.3,4.1-9.1,6.4-18.6,8.8-28.4,1.8-3.5,2.4-7.1,1.6-10.6,2.2-5.7,3.7-11.6,4.3-17.8l2.3-.6c-1.6-2.4-1.3-15.1,3.7-13.4l-.4,5.4Z"/>
  <path class="st38" d="M808.9,538.9c1.1,1.1.8,3,0,4.2,0,.2.2.5.2.8-2.1,2.2-2.4,5.6-3,9.1l-.7,4.3c-1.5,2.4-2.4,1.9-3.8-.3l-.7-10c-4,2.2-6.3,2-6.8-.6-.5-1.2.1-2.2,2-3.1l9.9-4.4h2.9Z"/>
  <path class="st9" d="M806.1,538.9c-3.1,4.3-9,2-11.9,7.5-.4,2.2-4,3.1-6,2.6-.1,2.7-.8,2.7-2,0-1,0-2.3.1-3.7-.9s1.6-5.7,1.6-5.6c.5-.4,1.7-.5,2.1-.4-.5,1.4-1.5,2.8-1.2,4.9,7.2.2,14.5-8.2,21.1-8.1Z"/>
  <path class="st9" d="M809,543.2v-4.2c.9,0,1.2.8,1.2,1.7s-.3,2-1.2,2.6Z"/>
  <path class="st44" d="M237.2,329.1l6.2-11.6c5-9.5-3.6-13.1-6.4-19.6,5.2,2.7,10.6,13,10.5,13.6-.1,1.2-1.7,2.5-2,3.8-.9,4.2-5.2,12.6-8.3,13.8Z"/>
  <path class="st37" d="M547,241.9l1.9,3.2,5.2,5c0,2.9,3.4,5.2,1.3,6s-4.9-5.6-6.6-2.4-1.5,4.3-4.1,6.1c5.9,1.5,7.6,6.6,10.4,10.4-2.9-1.5-4.1-4.2-6.8-7.7l-13.4,19.5-8.8,15.1c-2.7,4.6-1.4,8.3-1.5,13.2v10c0,0-.6,12-.6,12-.1,2.6-4.1,5.9-6.3,5.3-4.3-1.2-8-3.8-11.6-5.5l-13.8-6.4c-1.1-.5-1.7-1.7-2.8-1.7s-2.7,1.3-2.6,3c.2,3.9-1.5,7-2.3,10.3l-2.1,9c-1.8,7.6-4.5,16.2-4,22.6s.1,12.9-.8,19.9l-1.7,13.5c5.9,3.3,10,7.1,14.8,10.8l12.1,9.4c-.6,1.5-3.9,2.4-5.5,1.1-3.6-3-7.5-3.8-11.5-5.5l-16.5-7.5-22.5-11c-2.1,6.9,0,12.9-.3,19.3-.7,12.2-1.3,35.7,2.6,42.1s-.1,2.9-.8,3.1-2.4-.5-2.8-1.7l-4.5-12.4c-2.3,2.5-1.4,6.1.5,8.4l.4,4.8c-.5-.2-7-17.8-7.2-19.4l-2.4-19.9v-28.4s2.1-23.5,2.1-23.5l20.3,10.7c3.6,1.9,6.3,5.5,11.6,6.7.1-3.8.1-8.3-.8-11.8-2.8-10.6-2.1-20.6.8-31l10.4-36.8c.4-1.6,1.9-5.6,3.7-5l22.1,11.6c3.2,2.8,6.4,6.4,11.6,7.3-1.6-5.8-1.5-10.3-2.3-15.5l-1.9-12.8c1-5.5,4.9-9.9,7.8-14.3l12-18,13.3-19.7c.6-.9.9-1.9,2.2-2s1.1.4,1.6.7Z"/>
  <path class="st35" d="M548.9,245.1c-.8-.8-2.4-1.3-1.9-3.2,1.3.6,2.1,1.6,1.9,3.2Z"/>
  <path class="st45" d="M789.1,617c-.9.7-1,2.3-.8,3.5-1.1.9-2.6,2.2-3,3.5l-3.3,4.1c-1.4.4-2,2.2-3,3,.3,2.1-.1,2.7-1.3,1.9,1,2.4,4.4,3.5,10.2,3.3,2.4,1,2.6,2.4.7,4.7s-12.8,5.9-15.9,6.6c-7.3,1.7-16.1,2.8-23.5,3.6-4,1.6-8.5,2.5-13.3,2.6-4.2,1.6-8.1,3.8-11.6,6.6l-2.1-1.1c.3-2.3,3.3-3,4.6-4.4,3.1-3.3,5.6-4.4,10.8-4.5-1.9-2.5-4-1.8-6.3-2.3l-6.7-9.6c-.8-1.6,1.2-6-1.4-7.4s-4-1.4-4.5-3.2-.5-3.5,0-5.4l3.3-11.1c4.9,2.2,10.4,2,14.1-1.6.4-1.7-.3-4.8,1.4-6.6,2.1.7,4,2.3,6.2,1.5-.3-1.4.3-3.3.9-3.4,2.3-.4,3.1,4.5,6,6,5.8-5.6,9.6-16.6,15.7-13.4l1.9,2.9c.4.6,1.3-.4,1.6-.8,1.6-2-1.2-4.8.2-7.5,2.1-4,5.1-1.2,10.4-1.2-.7,4.3-1,8.1,1,12.3,2.7-2.2,3.3-5.9,2.8-9.2s3.6-9.6,2.1-20.2l-35.4,20.7-10.6,5.4c-2.3,1.2-5.2,2.1-7.3,2.9l-1.1-2.3c17.2-9,34.1-18.5,50.9-28.5,3.1-3.2,6.9-3.2,8.1,1.6-2.4,12.6-4.1,25.3-5,38.1-.5,4.2.7,6.7,3.4,7.5v1.6Z"/>
  <path class="st2" d="M778.9,631c-1.5,6.3,5.8,2,12.2,6.1-7,16.5-15,31.6-24.4,46.6-2.2,3.5-4.8,5.9-7.7,8.3-2.6-.6-2.5-1.5,0-2.2-.4-1-1.2-1-2.2-.5.7,2.3-2.5,3.8-4,1.7-2.6,2.7-7.6-.3-3.9-2.9l2-1.9c4.2-6.7,8.3-13.5,12.1-20.4l.7-1.9c.8-.8,3.4-3.6,2.7-4.7-1.4-2.1-21,1.6-24.3,2.3-3.2,1.6-6.8,2.3-10.7,1.9-9.3,3.7-18.2,8-26.8,12.9-.1,2.4-5.7,4.3-6.9,2.6s9.4-10.8,12.2-11.2l12-8.7,4.4-2.7c4.9-4.6,10.9-5.9,17.6-5.5l4.7-2.1c4.2.5,7-.6,10.6-1.4,6.9-1.5,14.2-1.4,20.8-4.5s4.7-3.8,8.3-3.4c.1-1.3,0-2.1-.2-2.8l-10.2-.9c-1.5-.1-1.6-2.2-1.6-3.2,0-1.7,1.8-1.2,2.4-1.7Z"/>
  <path class="st45" d="M748.9,700.6c-3.2,1.2-5.1,3.4-7.9,5.4-.8-.5-1.7-1.1-1.7-1.9s12.9-10.4,14.8-11.6,2.9-1.8,3.9-1.6.7.5.9,1.1c-.6.7-1,1.5-2.6,2.7l-7.6,5.9Z"/>
  <path class="st2" d="M781.9,628c.1-1.9,1.4-3.4,3.3-4.1-.7,1.8-1.3,3.4-3.3,4.1Z"/>
  <path class="st23" d="M416.8,453l24.2,14c1.4.8,1.3-3.1,1-4,6,2.8-1.4,8.9,4.7,13.3l10.5,7.6,17.5,12.4,27.2,18c.7.5-.3,2.2-.9,2.3s-1.9.8-2.9.3l-10.3-5.4-13.8-7.5-42.2-22.4-1,19.4c-2,11-1.7,21.6-1.9,32.3-2.3-1-2.5-3.7-3.4-2.7s-1.1,2.4-.8,2.9l6.1,9.9c1.2,1.9,2,4.4.5,5.9-6.6,2.7-11.2-.3-16.7-4.7l.3-2.4c5.4,1.2,9.8,6,16.2,6.1-.3-4.1-3.6-6.4-4.9-9.3-3.2-7.5-7.9-15.3-8.8-23.8l-2.9-25.4-.6-33.7c0-1.1.5-2.1,1-2.5s1.2-.4,1.9-.5Z"/>
  <path class="st29" d="M414.8,542.1c4.5,3.9,11.2,7.8,16.5,7.1-1,1.1-2.5,1.3-4.6,1.2l2.9,1.6c1.4.8-.4,3.3-.5,4.3.7,5,7.6,6.1,10.7,8.7s4.8,3,7.5,4.7l53.9,34.9c2.8,1.8,6.9,2.4,6.8,7.2l-30.8-16.1-22.6-11.5-8.3-4.6-19.4-11.2c-1.7,5.5,1.1,9.9,1.7,14.5,1.1,8.5,3.5,14.1,1.9,26s-2.6,3.9-.7,6.2,0,1.5-.4,1.9-.9,1.3-1.8.5-1-1.3-1.2-2.4c-.6-1.3-1.9-.8-1.6.7-.2,2.2,1.6,3.4,1.8,4.9l-2.6-2.2-4.8-10.1-7.7-28.4c-1.7-6.4-2.1-12.6-3.3-19l-2.3-12.4c-.7-3.5-3.1-7-1-11,3.3,1,7.3,2.3,9.6,4.3Z"/>
  <path class="st2" d="M454.8,691.2c-3.6-2.8-6.2-6.7-9-11l-5.8-9.1-7.4-13.6c-2.3-4.3-3.3-8.6-6.4-12.9s-.3-4.4-2.5-4.6c-.3-1.4-.2-3.7,1.3-4-.9,2.2,1.1,3.7,2.6,5.5s-1.9,4.2,2,4.9c0-1.6-.1-3,1.3-5,2.1,3.2,5.8,1.9,7.9,2.8,4.9,1.9,9,2.3,14.1,3.2l12.8,2.2,14.7,2.3c9.4,3.8,16.2,11.7,24.5,17.2,4.2,2.8,9.4,3.9,11.6,9.4-5.9-1.2-10.5-4-15-6.9-10.9-6.8-22.4-10.1-35.4-10.8s-10.6-3.3-15.9-2.2-1,3.9-.2,5.3l16.8,28.5c-3.4.6-6.4-.8-8.7-2.5l-1.9-1.4c-.8-.6-1.7.2-1.6,1.1v1.7Z"/>
  <path class="st0" d="M497.8,721.1l-1.1,9.1,10.8,7.1,6.3,3.1c1.2.6,2.7,1,2.2,2.7-1.1-.7-2.6-.9-4-1.1-.6-2.2-3.2-2.1-4.8-3.2l-11.1-8,.3-8.8c-2-3-5.3-3.8-7.6-6,1.8-2.4,11.3,1.5,9,5.1Z"/>
  <path class="st50" d="M497.8,721.1c-1.6-3.6-8.3-4.7-9-5.1-4.7-2.5-10.5-5.9-13.7-10s-2.9-4.3-6.8-5.8-4.8-3.9-7-6.2c6.1-2.7,7.4,7.4,15.8,9.2s6.2-.5,7,1.7c3.6,12.3,13.6,8.5,14.9,12.6s1.9,3.4-1.3,3.6Z"/>
  <path class="st3" d="M759.1,689.8v2.2c-3.1.6-4.8,2.9-7.4,4.7l-8.3,5.7c-1.5,1-2.5,2.1-2.4,3.6l-14.9,10.2-4,1.1c0,.2,0,.4,0,.7-2.7.9-5,2.2-6.2,4.9.3,2.8-1.3,2.7-2.1.1,1-8.7-5.3-8-4.7-10.5,1.3-5.2,6.2,5,10.4,2.9l5.2-2.6c.9-1.9,2.4-4.6,4.5-2.8,3.2-1.9,5.8-3.7,5.1-9.1,3.6,1.9,5.4.8,7.6-.5s2.9-3.4,3.5-6.2c1.7,0,4.7.6,6-1.1-1.5-.6-1-1.2,1.5-2l4-1.7c2-1.6,2.7-1.4,2.2.5Z"/>
  <path class="st45" d="M722.1,718l-4.5,3.4c-2.4,1.8.6,5.7.3,7.6-.8,4.5-5.6,6.8-9,8.8l-9.8,5.4c-.2-.8,0-1.7.9-2.2l8.3-4.6c5.5-3.5,7.7-7.6,6.6-12.3l1-1.1c-.2-3.2,3.1-5.1,6.2-4.9Z"/>
  <path class="st45" d="M726.1,716.2c-1.2.8-2.4,2.1-4,1.1.4-1.7,2.4-1.8,4-1.1Z"/>
  <path class="st34" d="M799.5,426.1l1.3,3.4c.3.8-1.2,1.9-2.2,3.4-2-1.2-.7-3.1-.7-5.1v-49.3c.1-.4.6-.6.8-.5l.3,4.8c2.3,5.4.3,10.2.5,15.3.3,9.3,1.3,18.3,0,28Z"/>
  <path class="st1" d="M409.7,426.3l4.3.8v-44.2c0-.9,1-1.9,1.9-1.9v50.9c-2.6-1.3-4.2-2.5-6.2-5.7Z"/>
  <path class="st50" d="M370.9,296l.5,13.9c3.3,6.5,7.9,6.6,7.4,8.5s-1.2,1.2-1.9.7l-1.5-1c-1.8-2.6-6-4.6-6-8.2l-.3-12.9c0-1.2,1.5-1.4,1.8-1Z"/>
  <path class="st19" d="M175.8,566c.9,1.5-.2,2.1-1.7,2.1h-6.5c-1.1-.6,0-3.2.7-3,2,.7,3.9,1.8,7.5.9Z"/>
  <path class="st25" d="M525.2,115.8c-2.5-.1-2.1-2.3-2-3.1s1.2-1.8,2.4-1.1.7,4.3-.3,4.2Z"/>
  <path class="st10" d="M253.6,794.4c-1-4.5-.8-8.7-.1-13.7,2.5,3.6,2.5,9.2.1,13.7Z"/>
  <path class="st9" d="M620.6,481c19.1,10,38.3,19.8,57.6,29.5,8.7,3.6,3,8.3-4.3,8-8.3-2.7-16.5-6-24.4-9.8-2.9-3.2-8.9-4.2-13.1-6l-29.2-12.6-.4,62.4c-2.9,4.5-8,4.3-12.3,1.8-1.9-2.5-5.1-2.8-7.6-4.3l-38.7-24.4-18.1-11.1,26-13.5,43.2-21.9c5.2-2.6,10-5.4,15.1-.4s4.4,1.3,6.2,2.1Z"/>
  <path class="st9" d="M607.2,396.3l-.3,65.5c-2.5,2-5.5,2.8-8.8,3.2l-27.5-16.7-27.7-17.6c-1.4-.9-1.7-4.8,0-6l24.8-17.4,40.3-26.7,13,9.5c5,3.6,9.7,7.1,15.4,9.5l32.6,23.3c3.1,2.2,3.4,7.2.4,9.2-3.8-.9-6.2-3.4-9.1-5.4l-52.9-30.6Z"/>
  <path class="st9" d="M618.9,311.5c-4-2.8-7.2-6.3-12-7.7v64.1s-8.6,4.4-8.6,4.4c-1.2.6-1.8,1.5-2.8,1.7-1.9.3-10.1-8.8-15.4-13.1s-13.2-10.5-19.6-16.4-4.3-2.6-3.8-6.6-.1-8.3-.8-12.7l18.4-14,31.7-24.5c3.9.5,6,3.4,8.8,5.5l24.1,17.9,18,14.1-.3,16.5c0,2.8-2.1,5.2-3.6,8.1-2.7-4.8-3-9.5-3.4-14.3s-4.2-4.6-6.5-6.3c-5.3-3.9-10.4-7-15.6-10.6l-8.5-6Z"/>
  <path class="st35" d="M526.4,538.9c-3.7-2.2-6.8-5.4-11.4-5l.6,18.5.7,29.6c.1,5.4,1.5,10.8,0,16.1-3.5.3-5.5-2-8-3.3-8.9-4.7-16.8-10.3-25.3-15.6l-28.9-18.2c9.3-6,16.7-12.6,25-18.6l24.4-17.7,9.4-5.6c4.6-1.3,7.4,3.6,10.3,5.5l12.8,8.3c5.5,3.6,11,6.8,16.5,10.4l20,13.3c4.9,3.2,10.9,5.5,14.4,10.5s-1.5,3.1-2.5,3-2.6-.8-4.1-1.6l-29.3-15.8c-5.1-2.7-9.8-5.2-14.9-8.1l-9.8-5.7Z"/>
  <path class="st9" d="M619.2,576c17.7,11.6,35,23.8,52,36.7,1,4.3-5.7,3.9-9.1,3.3l-37.3-21.9-17.7-11.4-.4,60.7-11.5-4.6-44.7-22c-2.6-1.3-5-1.9-6.5-4.6l8.9-5.4,27.8-20.1,8.4-5.8,15.1-10.8c5.6-4,9.1,5,15.1,5.9Z"/>
  <path class="st45" d="M758.8,559c1.2.7,1.6,2,1.1,3.3s-5.4,4.8-8.7,4-3.1-2-4.9-4.1-4.9,1.5-4.3,3.9c1.1,1.1,2.6,1.3,4.5,2.1-2,12.7-9.5,7.7-11.6,11.8s-2.8,1.7-3.7.7-.9-2.9-1.6-3.2c-5.3-1.3-11.8,8.8-9.7,14.7-.6,1.5-1.8,4.2-3,5.8s-3.4-.6-3.6-1.6c-.4-1.6,1.8-4,.9-5.7s-5.2-.9-6.5,1.4,2.7,6.2,1.6,9.2-1.9,2.2-3.7,3.8c.5,1.3,2.4,1.8,3.2,1.4l3.6-2.2c9.6-7.6,19.5-13.9,30.2-19.9s2.2-1.9,3.8-1.3v2.3c.1,0-23.8,15.9-23.8,15.9l7.6-3.5,2.1,1.2c-5,6.5-15.9,5.1-20.1,13.6l-6.4-.3c-.1-1.7-.8-3.6-2.2-4.1s-2.6,1.3-3.7,1.4c-4.1.5-6.8,1.9-8,6.7l-13.7-2.9c2.5-6.5-1.7-10.6-7-13.6l-7.2-7c4.1-7.2,5.9-18.5,1.1-22.7,1.9-2,3.3-5.9,2.1-8.9l15.1-5.1c4.3-1.4,7.8-.7,11.9,1.6-1.9.6-3.9,1.2-5.3,3.7,11,2.8,15.9-1.1,12.8-2.4s-2.4,0-3.7-1.6c5.1-1.6,10.5.8,16.2.6s8.5.3,11.4,1.8,3.3-.9,3.9-.3c3.5,3.4-4.9,8.6-15.7,8.3.6,4.2,4.3,4.3,7,5,4.3,1.1,9.7-4.7,12.9-7.4l6.1-5.2c-2.6-4.2-8.4-5.2-10.7-9,.5-1.4,1.4-2.1,2.7-1.3l20.3,12.3c2.6.3,5-.7,7-2.9Z"/>
  <path class="st9" d="M515.2,447.2l-.8,12.9c-.5,7.2-1.6,13.8-2,21l-1.3,21.9c-3.2.8-4.9-1.4-7.2-2.9l-14.8-9.4c-8.4-5.3-15.7-11.8-25.2-15.9,2.8-5.2,7.1-8,11.3-11.7l20.2-17.8c6.3-5.5,12.7-10.2,18.3-16.6s3.8-1.1,4.9-.3c18.1,13.8,36,25.1,54.3,37.8l13.1,9.1c-2,1.7-4.9,3.7-6.8,2.7l-28.6-15.6-22.2-12.8c-2.6-1.5-5.4-1.9-7.6-4.6s-2.4-1.3-3.3-1.2-2.2,1.6-2.3,3.4Z"/>
  <path class="st9" d="M532.5,367.8l-3,17.2c-1.8,10.1-5.4,31-6.3,31.5-1.5.9-2.4,0-3.9-.8l-17.2-10.4c-2.6-1.6-5-.3-6.4-4.2-2.3-5.8-3.1-12.1-4.4-18.5s-3.1-5.7-.5-7.9l30-26,9.5-7.5c1.8-1.4,3.2-3.1,5.3-3.1s3.5,1.7,5.2,3.2l12.9,11.2,13.8,13.2,18.4,16.8c.9.8-1.1,2.9-2,3.2-1.3.5-3.6.9-5.1-.3l-28.8-22.1-12.2-9.9c-3.7-3-3.3,4-5.1,14.4Z"/>
  <path class="st45" d="M746.8,491.8c-.4,3.1-3.7,3.4-5.9,5.1l-19.5,15.6c2.4.3,4.6-.8,6.3-1.7l13.3-7c-.4,2.2-2.7,2.6-4.5,3.6l-11.1,5.9-8.7,5.5c-2.7-1.5-6-2.9-8.4-5.5s-2-6.2-5.5-6.1-8.3-1.2-11.6-1.8c-1.4.8-3.4,3.9-5.8,2.1l-5.9-4.2c-7.5-5.3-9.5-13.3-14.3-12.4-.8,1-3.6,4.7-4.7,2.5-1.6-3.3-.3-8.7-.8-12.4s2.2-6.2,4.1-9.4,3.9-5.5,8.2-3.9,9.1-.4,14-.6l18.7-.8c2.3,0,2.4-4.1,3-5.3,1.8-.9,2.8.7,2.5,1.3s-.6,2.8-.1,3.3c1.2,1.4,3.8,1.1,6.2,1.2-4.9,7.2,4.8.4,10.6,11.4,1.9,3.6,8-5.8,10.2-.9s-2.7,7.1-8.1,7.3-2.4,1.8-2,2.6,1.7,1.3,3.3,2c-7.1,4.2-1.7,10.6-4,13.3s-3.6-3.8-6.7-4.5-3,1.2-4.8,2.4-4.2,1.3-3.3,4.6l6.9-1c1.7-.3,1,4.2-.7,5.1s-1.6,3.5-.6,3.8c3.4-1,6.1-4.7,8.6-6.4l6-4.3c5.2-3.7,10.1-8.3,15.4-10.5Z"/>
  <path class="st9" d="M616.8,661l18.3,10c.2,0,.5,0,.7,0l15.9,10.2c5.7,4.1-4.8,5.6-7.9,2.3l-27.5-10.9c-3.1-1.2-5.8-3.3-9.4-4l-.3,31.4-16.5-4.4-5.9-2.2-15.4-6.5c-3-1.3-6.5-1.8-8-4.8,7.5-6.7,16.5-10,25-14.5l13.1-6.9,8.1-5.3c3.5,2.1,6.4,4.4,9.8,5.4Z"/>
  <path class="st2" d="M805.5,557.4l-1.4,4.7c-.2,4.9-.3,9.6-3.3,13.9,1.8,4.2-.6,7.6-1.5,10.9l-2.7,10.1c-1.9,7.1-3.6,17-7.5,20-.6-1-2.8-.3-4-.2-2.2-6.9-1.4-14.8-.3-21.9l1.7-11.4,2.4-14.3c.2-1-2.5-1.6-3.1-1.1l-1.9,1.7-33.5,19.4-11.8,6.3c-1.9,1-4.9.9-5.6,3.5-.2,0-.6,0-.8,0l-10.9,5.1-9.2,4c0-.2-.4-.8-.7-1.2l14.8-10.7,20-13,1.9-2,8.3-5c.2,0,.6,0,.8.2,9.8-6,19.3-12.4,28.5-19.1,1.7-2.4,2.6-5.1,2.7-8.2.3-1.7,4.3-3.3,6-2.6s3.8-.6,6.3-1.2c5.7-1.4.1,13.7,5,12.2Z"/>
  <path class="st35" d="M710.9,524c.3.8,1.2,1.6,1.9,2.1,14,9.5,27.8,19.6,41.2,30.2l4.9,2.7c.6,1.9-.3,3.5-2.5,4.3s-6.1,1.1-8.1-1.6l-12.9-7.2c-2.3-1.3-4-3.5-6.5-3.6s-.5,0-.7,0c-9.2-5.4-18.3-10.8-27.4-16.3-4.3.5-8.6,1.9-12.9,4.2-.8.4-1.4,1.2-1.9,1.9l-6.3,3.1-1.8,1.8c-14.6,7.8-29.1,15.8-43.7,23.9-5.4,1.7-8.6-4.2-3.1-6.7,3-.9,5-3.3,7.7-5l15.3-9.8,33.7-22.1c1.6-1.3,3.4-2.4,5.1-3.1.8-.8,1.8-1.4,3-1.8,4.2-3.6,9.1-2.7,14.8,2.9Z"/>
  <path class="st35" d="M529.9,633.2l1.8,16.9c.6,5.8.9,11.1,2.6,17.2-1.6,2.2-5.4,0-7.2-1.1l-11.6-7.6-13.4-7.5c-1-.6-3.1-.1-3.6-.8s-.4-3.1.8-4.1l11.2-9.9,15.5-14.4c2.8-2.6,6.2.5,8.6,1.7l29.2,14.8,24.2,13.5c-2.6,3.4-6.2,2-9.4.8l-17.2-6.8-24.9-11.1c-1.7-.8-2.7-2.5-6.3-1.6Z"/>
  <path class="st9" d="M705.8,372.1l-7.2-5.8-12.9-10.1c-2-1.6-4.4-4.7-7.3-2.7l-9.4,6.5-14.8,11.2-18.6,13.4c-1.2.9-2.8,1.3-3.9,1.3s-3.3-2.4-2.4-3.5c2.6-3.2,5.7-5.7,8.7-8.4l15.4-14.6,20.2-17.8c2-1.8,3.4-2.8,5.9-2.9s4.2,1.5,6.4,3.4l8,6.9c3.2,2.8,6.4,4.8,9.5,7.7l11,10.1c3.1,2.8,8.2,4.7,10.1,8.8s-1.6,8.8-2.3,12.5c-1.1,6.3-1.3,11.8-4,17.8-4-3.6-2.5-7.7-2.6-11.9-.3-9.9.5-13.5-9.7-21.7Z"/>
  <path class="st9" d="M721.7,448.1c4.5,3.3,28.8,23.9,29.3,25.8s-4.9,5-6.9,2.7c-13.7-10.8-27.7-21.3-42.1-31.5-2.2-1.5-4.7-2.5-7.2-1.2l-1.8,1.8c-9,6.3-18.3,11.7-28.1,16.3l-1.8,2-9.1,4.8c-1.6.3-1.9,1-3,1.9-3.7,2.5-17.1,10-20.1,4.1s12.9-11.2,15.4-11.8l18.3-12.6,32.5-22.2c5.6,2.5,9.8,6.6,14.2,10.5l10.5,9.3Z"/>
  <path class="st45" d="M770.5,544.5c1.7-.5,3.3-1.7,4.8-1.3s3.5,2.5,2.5,4.4-5.5,1.7-6.6,3l-2.8,3.1c-1.5,1.6-3-1.5-4.1-1.8-4.5-1.1-5.4-3.8-6.8-7.9-3.5-10.6-8.9-18.4-4.7-28.5s-2-4.2-4.1-4.4-.7-2.2,0-2.4c4.1-1,4.9,4,8.9,3.9s7.8-4.8,8.6-7.4l-1.8-4.9c1.8-1.6,4.7-2.1,6-4.8l5.2,4.7c1,.9-1.8,12-8.9,9.6-.3,2.9-.6,5.7,0,8.7s3.1,3,4.8,3l.5-10.6c11.1,2-4.4,12,5.6,22.3,1.2,1.2,2,3.4,1.1,4.6s-2.7,1.9-4.2,2-2.7-1.8-2.7-4.2c-1.8.4-3.6,1.9-4.3,3.6s1.7,4.6,3.1,5.1Z"/>
  <path class="st2" d="M607,742.6c-5.3,1.8-11.2-1.9-15.9-3.6l-15.8-5.6c1.5-4,5.2-3.7,7.5-5.4,3.5-2.5,6.7-3.2,10.4-4.9l13.9-6.3,26,11.9,2.5,1.1c.6.2.8,2.8.2,3l-28.8,9.7Z"/>
  <path class="st9" d="M702,634l.7,1.1c6.5,4.1,25.1,22.9,5.7,13.7l-23.7-16.8c-16.8,7.8-33.7,15.6-50.6,23.4-2.4.5-6.4.8-7.1-2.2s7.2-6.5,9.1-7.3c3.9-.8,7.4-3.7,11.2-5.6l17-8.6c6.8-4.4,14-8.2,21.6-11.2,5.7,3.7,11.1,8.2,16.1,13.5Z"/>
  <path class="st45" d="M694.1,665.5c-.9,4.8-3.7,7.9-4.1,12.8-1.7-1.8-2.9-3.2-4.5-3.2s-3.3,1.8-3.8,4c-2.3,0-2.9-2.2-4.2-3.7-2.4-2.9-7.1-1.5-8.8,2s-3.1-.3-3.1-1.4c5.6-7.5-2.2-15.1,1.9-21.4l3.6-5.6c2.3-3.6,8.5-3.1,12.9-2.6l-.7,4c-.2,1.2,1.8,1.7,2.6,3l2.7,5.1c3.5.4,4.2-4.3,5.8-4.7l8.6-2.3c2.1-.6,4.9,3.8,3.5,5.1s-5.9,1.3-8.1,1.7c-4.1.7-3.8,3.9-4.4,7.3Z"/>
  <path class="st9" d="M581.5,709.7c-12.6-3.2-24.4-6.9-36.4-11.9-5.5,1.8-9.2,5.6-13.6,8.6l-10.7,7.4-2.2.4c-.8.2-2.7-1.2-1.7-2.1l11.2-10.9,13-11.9c2.8-2.6,6.9,2,9.4,3.1l13.4,5.9,7.3,2.6,18.7,9.1c-3,3.1-5.7.5-8.4-.2Z"/>
  <path class="st45" d="M688,728.1c0,1.6-.5,2.8-2,2.8-1.1-.7-24.1.9-22.9,1,11.9.7,24.8-.3,36.7-1.6l1.6,1.8c-2.9,1.4-2.5,4.2-3.8,6.7s-7.2,5.1-10.4,5.2-8.5-1-12.6.6-1.9,2.4-2.8,2.2c-2.6-.7-2.4-4.2-3.6-5.2-2.4-2-3,3.6-5.6,3.6s-2.2-1.8-3.3-2.2l-8.9-3.3c-.7-.3-2.5,1-3.1,1.5-.8.7-3.5-.8-3-1.6,2.5-3.3,7-3.6,11-3,.2-2.5-1.2-3.6-2-5,1.8-2.6,4.3-2.9,7.1-3l27.6-.3Z"/>
  <path class="st9" d="M686.2,708.3l-12.6-8.8c-3.2-2.2-6.8.1-9.8,1.1l-20.1,6.3-9.4,2.7c-2.4.7-5.2,3.1-8,.5,5.5-4.7,11.7-6.5,17.9-9,9.2-4.8,18.7-9.1,28.6-12.8,3.4,2.5,6.5,5.3,9.5,8.4,1.8-.4,3.1,1,4.1,4.1,2.1,1.7,12.1,11.2,10.8,13.2s-.7.8-1.1,1-8.9-5.1-9.9-6.5Z"/>
  <path class="st23" d="M701.6,731.1c-.2.2-.5.5-.3,1l-15.3,1.7-27.9.2c-.9,0-2-1-1.9-1.5.1-2.5,14.2-3.8,23.8-3.5,2.9,0,5.8.5,7.9-.9l.9.2c3.3-2.3,16-3.2,12.7,2.8Z"/>
  <path class="st45" d="M785.9,537.9c-1.5.4-2.2,1.9-4.6,1.9l-.2-8.4c7.4-2.3-2.4-10.9.5-16.8s.3-7.1.2-11.5l-.2-20-33.5,18.6c-2.2,1.2-4.3,2.3-6.3,2.2,4.9-4,11.2-6.1,16.8-9.3l19.1-11.1c2-1.2,3.4-3.3,6.5-2.3l.3,35.4,2.9,14c.3,1.5,1.9,2.7,1.2,4.5s-1.1,2.4-2.6,2.8Z"/>
  <path class="st23" d="M544,728.9c13.1.6,15.1,5.1,10.9,5l-22.8-.2-17.2-2.3c-.8-.1-1.2-1.3-1-1.8s.9-1.5,2.2-1.5h12.9c0,.1,15,.8,15,.8Z"/>
  <path class="st45" d="M763.9,664c.5-1.3,1.1-2.5,2.6-4.5-5.1-1.5-9.3,1-14.3,1.7l-10.7,1.5c-4,6.6-7.1-1.3-12.2,2.9l-4.3,1.2-19.9,10.7c0,3.9,2.8,5.8,5.6,8,1.1,2.2.9,6.7,3.1,8.6s5.4,0,7.1,2.6-1.4,2.9-2,2.2c-2.9-3.3-7.4-3.8-10.8-4.5-.3-4.8-1.6-6.8-5.3-9.5s-2.5-4.5-5.6-2.5-2.8,1-3.1.3l-.9-2.1c-.2-.5,1.1-1.4,1.5-1.7l10.4-8.8c1.6-1.4,3-2.5,4.9-2.2-4,2.9-8.4,5.5-11.3,10.7l24.3-12.5c7.6-3.9,15.3-4.9,23.6-5.9s12.6-3.4,19.2-1.8,1.8,2.5.8,3.6-1.5,1.6-2.7,2Z"/>
  <path class="st45" d="M721.7,448.1c6.9,2.9,13.9,10.9,19.4,15.8l7.3,6.5c2.4,2.1,3.2,3.3,7.6,3.9-6.7,1.5-7.5,6.9-12.4,3.1l-22.5-17.7c-3.9-3.1-7.3-5.7-11.7-8.3s-8.9-8.8-14.7-7.5c2.2-2.2,5.1-1,7.5.7l8.8,6.2c3.7,2.6,7,4.8,10.5,7.5l8.4,6.7,14.8,11.1c1.6,1.2,5.4-.6,4.3-2-3.5-4.7-7.8-8.4-12-12.1l-7.4-6.6-7.9-7.3Z"/>
  <path class="st42" d="M584.6,757.4l-31.7.4-9.1-2.9c2-3.6,5-1.1,7.6-.4,12.6,3.4,25.3-1.5,33.2,2.9Z"/>
  <path class="st45" d="M624.8,594l12.5,6.5c2.2,1.2,3.5,2.4,5.6,3.6l17,10c3.5,2.1,7.7,2.7,10.5-1.3l-51.2-36.8c1.3.2,2.6.3,3.7,1.1l11.7,8.3,33.3,23.8c2.8,2,6.6,3.8,4.5,8.9-2.2-2.3-7.7-.6-10.3-1.4l-30.3-17.4c-3.1-1.8-4.7-3.8-7.1-5.3Z"/>
  <path class="st7" d="M582.7,796.1c-4.2-3.7-3.5-10.5-1-15.4l2-7.2c2.3,2.1.6,4.6,1.1,6.3,1.8,5.6,2.3,11-2.1,16.4Z"/>
  <path class="st45" d="M643.8,683.6c2.4,1,5.9.8,8.9-.4l-10.6-7.4c-2.1-1.5-5.3-2.1-6.3-4.7,4.5.7,7.6,4.2,11.7,6.5s7.1,3.3,8.4,7.2c-4.7,2.6-9.9,2.7-12-1.2Z"/>
  <path class="st45" d="M727.5,682c-2.6.1-3.7,3.1-5.4,4.4s-3.6-2.7-9.4-4.1c9.3-.4,17.7-4.4,20.5-.6s.9,2.3,0,2.9c-2.1,1.5-3.4-2.7-5.6-2.6Z"/>
  <path class="st45" d="M649.5,508.8l10.8,3.8c7.2,2.9,16.4,9.9,21.7,1.7-3-3.3-7.3-4.3-10.9-6.3l-9.2-5-9.9-5.1c-3.2-1.6-5.7-3.4-9.1-4.9l-19-8.9c-1.8-.9-3.5-1.2-3.4-3.1l29.2,14.2,6.6,3.5,12.8,6.3,13.1,6.8c1.3.7,2.1,2.4,1.7,3.5s-1.4,1.5-2.3,2.2c-7.6,5.5-18.9-3-24.7-5s-5-1.1-7.4-3.7Z"/>
  <path class="st45" d="M702.7,635.1c3-.5,4.9,4,11.4,8.9s5.7,6,4,8.5-1.7-.1-2.2-.4c-6.7-.4-12.1-5.7-16.8-9.1l-13.6-9.6c-2.5-1.8-5.9,2-8.2,2.6-6,1.8-10.2,5-15.4,7.5l-25.5,11.9c-3.3,1.6-9.5,2.2-9.9-2.6.7-3.3,6.5-6.3,9.6-6.9l-8.5,7.2c2.6,2.9,5.9,1.9,9,.4l48.4-22.6,19.1,14.2,9,5.6c.6.3,2.8.3,3-.3s-.3-1.9-1-2.6l-12.4-12.7Z"/>
  <path class="st45" d="M788.2,549c5.7,6.2-4.7,11.5-14.7,17.4l-16.5,9.8c1.2-3.6,5.2-4.2,8.1-6l16.5-10.5c2.9-1.8,3.3-4,4.1-7.4s1.9-2.3.4-3.3h2Z"/>
  <path class="st45" d="M686.2,708.3c2.3,1.6,8.7,5,9.3,4.9s.9-1.2.5-1.6l-1.4-1.3c-3.8-5.2-8.3-8.8-12.9-13.2l-9-8.6-11,5.2-17.6,7.2c.3-2.2,2.3-2.4,4.4-3.3l17.5-7.6c2.8-1.2,6.3-3.8,9.1-1.2l7.8,7.3c1.3-1,1.9-2.3,4.1-2.2-.7,2.3-1.1,3.7-.9,5.1s2.4,2.1,3.5,3.3l9.2,10.6c.8,1-1.2,3-2,3.4-1.5.7-2-.8-3.3-1.8-2.7-2.2-5.8-3.2-7.4-6.3Z"/>
  <path class="st36" d="M663,757.8h-24s0-1.6,0-1.6l23.5-.2c.7.5.6,1.3.5,1.8Z"/>
  <path class="st45" d="M646.2,463.1l-12.6,8.6c-.8.5-1.5,2.1-1.5,2.8.1,1.7,8.4,3.4,12.9-1.4s3.7-2.5,5.7-2.4c-7.4,5.6-12.3,9.5-21.5,4.6,2.5-5.7,7.9-7.5,12.2-10.6s2.9-1.7,4.7-1.6Z"/>
  <path class="st45" d="M666.3,624.3c-1.4,1.8-3.1,3.1-4.7,4.1-1.4-1.4-1.7-2.1-1.9-2.9-.4-1.9,2.6-6.4,5.8-5.5s1.9,2.9.8,4.4Z"/>
  <path class="st45" d="M754,556.3c-5.4-3-13.8-9.8-20.4-14.8l-20.8-15.4c2.7-.2,4.4,2.1,6.5,3.6l23,17c2.6,1.9,5.5,2.6,7.7,5.6s4.1,1.7,4,4.1Z"/>
  <path class="st45" d="M701.6,731.1c.2-.7.2-1.6-.1-2.2s-1.4-1-2.5-1l-10.1.4c2.6-5,13.1-2.9,14-.7s.4,3-1.3,3.4Z"/>
  <path class="st45" d="M677.9,545.7l-6.7,4.5-17.6,9.4-6.7,3.3-9.8,6.1c-2.4,1.5-4.1,2.3-6.7,1.2s-3.2-2.6-2.8-5,2.6-2,3.6-2.3c-.9,1.1-2.2,2.6-2.2,3.8,0,2,3,3.3,4.9,2.2l9.7-5.3,26.6-14.3c2.7-1.4,4.5-4.2,7.7-3.5Z"/>
  <path class="st45" d="M702,634c-4.8-1.1-8.9-9.2-16.1-13l-21.6,10.7c.6-2.4,2.6-2.9,4.6-3.9l12-6c2.4-1.2,5.9-3,8.1-1l7.8,7.3c2.1,2,3.9,3.8,5.2,5.9Z"/>
  <path class="st45" d="M693,445.8c-4.7,4.7-9.4,5.2-12.4,10.6-8.8.2-11,6.9-15.7,5.7l22.5-13.6c1.9-1.2,3.4-2.8,5.6-2.7Z"/>
  <path class="st45" d="M728.2,551c-5.6-1.7-10.6-5-15.7-8.4l-9.1-6c-7-4.6-9.5,3.1-15.5,2.4,3-1.4,6.4-4.2,10.2-4.8,4.7-.8,8.4,3.6,12,5.6,6.5,3.7,12.9,6.5,18,11.3Z"/>
  <path class="st45" d="M694.3,701.1c-2.1,0-2.8-1.3-2.8-2.6s4.4-6.3,6.8-4.9l-4.1,7.4Z"/>
  <path class="st45" d="M710.9,524c-2.9-.2-5-2.6-7.7-4.2s-5.1.4-7.2,1.3c.8-2.7,3.2-2.9,5.5-2.9,3.9,0,8.8,4.6,9.4,5.8Z"/>
  <path class="st45" d="M720.8,641.1c.8.9-2,2.9-3.2,1.9-2.5-1.9-2-4.2-2.9-5.6s1-1.8,1.8-.9l4.3,4.5Z"/>
  <path class="st24" d="M576.8,804.6v10.4c0,0-1.6,0-1.6,0l-.4-10.1c0-1.2,2-1.5,2-.3Z"/>
  <path class="st45" d="M732.8,699.4c-.8,2.4-2.2,2.8-3.7,2.3s-2.7-1.1-3.9-3.4c2.6-.3,4.9.6,7.7,1.1Z"/>
  <path class="st45" d="M751,686.3c-.6-5.7,6.9-8.6,10.4-18.9s1.3-1.3,1.7-1.4c-1.1,2.7-1.8,5.7-3.8,8.5l-8.4,11.9Z"/>
  <path class="st45" d="M752.9,691.1l-1.5,2c-1.8.1-5.1-.8-5.2-3s2.1-1.4,2.7-2c-.3.9-.2,2.6.6,2.9,1.1.5,2.4.2,3.3,0Z"/>
  <path class="st45" d="M664.1,495.7c1.3-1,2.2-.2,2.9.7s.8,2-.3,2.7-1.4.6-2.3,0-2.1-1.9-.3-3.3Z"/>
  <path class="st10" d="M715.9,723c.1,2.2.4,4.3-.1,7.1l-3.1,3.4c-1.7,1.8-3.3,2.3-4.4,2.9-.2-3.2,3.6-3.9,5.2-5.6s.1-5.8.3-7.6h2.1Z"/>
  <path class="st45" d="M698.6,549l-2.1.7c-.4.2-1.3-.8-1.1-1.5.7-2.2,4.6-3.1,5.3-1.7s-1.1,2.1-2.1,2.4Z"/>
  <path class="st45" d="M729.2,710c-1.4.8-2.9,2-4.5,2.8.2-1.2.3-3.6,1.6-4.4s2.9.6,3,1.6Z"/>
  <path class="st45" d="M635.1,671c-2.8.6-6.1-3.9-13.3-6.7s-4.1-1.2-4.9-3.3c6.6,2.1,12.7,5.8,18.3,10Z"/>
  <path class="st45" d="M663,464c-2.2,2.4-5.9,4.2-9.1,4.8,2-2.7,5.8-4.3,9.1-4.8Z"/>
  <path class="st45" d="M722.9,674.4l-2.5,1.8c-.6.5-2.6,0-2.7-1.3s1.8-1.8,2.7-2,2.5.4,2.5,1.4Z"/>
  <path class="st45" d="M705.9,616.7c-1.1.6-4.5.4-5.1-1.6s1.9-1.7,2.7-1.2,1.1.7,2.4,2.9Z"/>
  <path class="st45" d="M686,540.8c-1.4,2-3.7,3.4-6.3,3.1,1.8-1.8,3.7-3.1,6.3-3.1Z"/>
  <path class="st45" d="M641.9,664.5c.9-1.7,2.5-.4,2.6.4s.4,1.8-.1,2.1c-1.2.6-3.6-.4-2.5-2.5Z"/>
  <path class="st45" d="M705.2,624.3c.7-.4,1.5-.1,1.8.2.5.5.4,1.4.2,1.9-.4.9-1.3.7-1.8.5-1-.5-1.3-1.9-.2-2.6Z"/>
  <path class="st45" d="M702,694c1.1-.5,1.5.3,1.7.8s.4,1.7-.3,2.1-2,0-2.2-.5-.1-1.9.8-2.4Z"/>
  <path class="st45" d="M693.1,522.9c-1.4,1.5-3,2.8-5.1,3.1,1.5-1,2.2-4.2,5.1-3.1Z"/>
  <path class="st45" d="M681.4,685c.7,1.1-.5,1.1-1,1-.9-.1-1.4-.2-3.2-1.5,0,0,1.6-1.3,2.2-1.4s1.3,1,2,1.9Z"/>
  <path class="st45" d="M756.2,576c-2.4,2.1-4.9,5-8.3,5,2.1-2.3,5.1-4.5,8.3-5Z"/>
  <path class="st45" d="M644.2,654.2c.8-1,2.7,1,2.6,1.3-.3.8-1.1.5-1.5.6-.8.1-2.1-.7-1.1-1.9Z"/>
  <path class="st45" d="M737.2,689.7c.7-1,1.2,0,1.4.3.8.8.4,1.9-.2,2-1.1.3-2.2-.9-1.2-2.3Z"/>
  <path class="st45" d="M718.4,468.3c0-.4,1.4-.5,2-.3s.8.5.2,1-.7.9-1,.9-1.1-.6-1.1-1.6Z"/>
  <path class="st43" d="M779.1,430v-45.6c.6.2,1.2.5,1.8.6l.2,44.5c-.5.6-1.3.6-1.9.5Z"/>
  <path class="st41" d="M700.9,317.8c0,1.7-1.7,2.8-2.4.8l.7-14.6h1.5s.2,13.8.2,13.8Z"/>
  <path class="st43" d="M777.7,383.6l-2-6.9c-.9,1-1.9,2.5-3.9,1.8,1.9-2,3.5-3.5,6.5-5.1l1.2,10.5-1.8-.3Z"/>
  <path class="st45" d="M759.1,689.8c-.4-.4-1.7-.8-2.2-.5l6.4-6.9c.7-.7,1.1-1.8,2.1-1.4s1,1.1.9,1.5-.8,1.1-1.3,1.6l-5.9,5.7Z"/>
  <path class="st12" d="M684,736.5c-.3,1.6-2.4,3.1-3.7,3.3s-1.4-.5-1.4-1.3c.2-2,1.4-3,3.5-3.4s1.7.2,1.5,1.4Z"/>
  <path class="st12" d="M691,736.7c.3,1.8-1.5,1.8-2.3,1.4s-2.2-1.6-1.3-3,3.2-.3,3.6,1.5Z"/>
</svg>